<?xml version="1.0" encoding="UTF-8"?>
<svg version="1.1" xmlns="http://www.w3.org/2000/svg" width="500" height="500">
<path d="M0 0 C-0.65670386 7.34735732 -2.07542003 14.37018251 -3.6875 21.5625 C-5.45069112 29.56707562 -7.14173787 37.57159543 -8.625 45.6328125 C-8.75679153 46.34837814 -8.88858307 47.06394379 -9.02436829 47.80119324 C-9.66256523 51.28238185 -10.29013236 54.76521344 -10.90698242 58.25024414 C-12.14331154 65.07403762 -13.5892901 71.49321665 -16 78 C-23.23214286 72.10714286 -23.23214286 72.10714286 -25 68 C-25.66 68 -26.32 68 -27 68 C-28.625 66 -28.625 66 -30 64 C-35.58115806 70.87042254 -41.02728707 78.05457413 -45 86 C-45.66 86 -46.32 86 -47 86 C-47.22171875 86.6703125 -47.4434375 87.340625 -47.671875 88.03125 C-49.4031505 91.90115994 -51.75876539 95.0846753 -54.25 98.5 C-59.88186219 106.31776469 -65.2267237 114.30088693 -70.45410156 122.39453125 C-71.01838867 123.255625 -71.58267578 124.11671875 -72.1640625 125.00390625 C-72.66373535 125.77549072 -73.1634082 126.5470752 -73.67822266 127.34204102 C-74.11440918 127.88916748 -74.5505957 128.43629395 -75 129 C-75.66 129 -76.32 129 -77 129 C-77.27199219 129.73992187 -77.54398438 130.47984375 -77.82421875 131.2421875 C-78.9407181 133.86095343 -80.14218397 135.83307269 -81.8125 138.125 C-85.35951628 143.08049883 -88.81576097 148.09109424 -92.25 153.125 C-93.3866064 154.78783722 -94.52332558 156.45059735 -95.66015625 158.11328125 C-97.27477835 160.47561114 -98.88932349 162.83799317 -100.50341797 165.20068359 C-105.79670301 172.94453009 -111.14046753 180.64153294 -116.63549805 188.24389648 C-118.89212079 191.38352556 -121.01095543 194.55992571 -123 197.875 C-123.66 198.90625 -124.32 199.9375 -125 201 C-125.66 201 -126.32 201 -127 201 C-127.22171875 201.66515625 -127.4434375 202.3303125 -127.671875 203.015625 C-129.41845672 206.94029686 -131.77787879 210.25026323 -134.25 213.75 C-135.24416882 215.17140017 -136.23766283 216.59327256 -137.23046875 218.015625 C-137.70790527 218.69818359 -138.1853418 219.38074219 -138.67724609 220.08398438 C-140.82824105 223.19971128 -142.86389792 226.38887029 -144.87890625 229.59375 C-145.24886719 230.0578125 -145.61882812 230.521875 -146 231 C-146.66 231 -147.32 231 -148 231 C-148.2475 231.70125 -148.495 232.4025 -148.75 233.125 C-150.16088026 236.37002459 -151.97895398 239.10316737 -154 242 C-157.89734745 238.59420988 -159.93760356 234.78530385 -162.25 230.25 C-162.63623535 229.50645264 -163.0224707 228.76290527 -163.42041016 227.99682617 C-167.36431797 220.37370773 -171.19274558 212.69203213 -175 205 C-175.56976563 203.90042969 -176.13953125 202.80085937 -176.7265625 201.66796875 C-178 199 -178 199 -178 197 C-178.66 196.67 -179.32 196.34 -180 196 C-180.7026325 194.42341412 -181.39503962 192.84172816 -182.04492188 191.24267578 C-184.04967629 186.53519263 -186.44769389 182.00465023 -188.75 177.4375 C-189.83468738 175.27867194 -190.91932312 173.11981794 -192.00390625 170.9609375 C-192.52355957 169.92807617 -193.04321289 168.89521484 -193.57861328 167.83105469 C-194.7346609 165.52849059 -195.88471949 163.22330312 -197.02734375 160.9140625 C-199.43229607 156.05888817 -201.86779722 151.22772008 -204.421875 146.44921875 C-204.83864502 145.66925537 -205.25541504 144.88929199 -205.68481445 144.08569336 C-206.50472386 142.55693225 -207.3286295 141.03030606 -208.15698242 139.50610352 C-211 134.21718631 -211 134.21718631 -211 132 C-211.66 132 -212.32 132 -213 132 C-213.13792969 133.0003125 -213.27585937 134.000625 -213.41796875 135.03125 C-214.91511731 145.4772042 -217.0160581 155.67656833 -219.9375 165.81640625 C-221.11183383 170.15499656 -221.91702536 174.56390834 -222.77851868 178.9730835 C-224.19612536 186.139214 -225.93431417 193.22206623 -227.6875 200.3125 C-228.39399649 203.18829712 -229.09784684 206.06473654 -229.80078125 208.94140625 C-229.98032349 209.67547699 -230.15986572 210.40954773 -230.34484863 211.16586304 C-231.67264299 216.61222951 -232.9605084 222.06722424 -234.23046875 227.52734375 C-234.50176857 228.69182793 -234.50176857 228.69182793 -234.77854919 229.87983704 C-235.48428815 232.91136769 -236.18948881 235.94299148 -236.8868103 238.97647095 C-237.36652621 241.06322486 -237.85088173 243.14885697 -238.3359375 245.234375 C-238.60970215 246.42256836 -238.8834668 247.61076172 -239.16552734 248.83496094 C-240 252 -240 252 -242 257 C-256.85 257 -271.7 257 -287 257 C-288.51331548 253.97336903 -287.44536388 251.88545503 -286.671875 248.62890625 C-286.44736664 247.67346169 -286.44736664 247.67346169 -286.21832275 246.69871521 C-285.89861709 245.34370576 -285.57558102 243.98947852 -285.24951172 242.63598633 C-284.75982132 240.60326858 -284.27931268 238.56857334 -283.80078125 236.53320312 C-282.44860924 230.81695811 -281.05844717 225.11970069 -279.46484375 219.46484375 C-277.58982193 212.71363341 -276.21470245 205.86213643 -274.8125 199 C-274.53735584 197.67833408 -274.26196653 196.35671918 -273.98632812 195.03515625 C-272.54368944 188.5682472 -272.54368944 188.5682472 -272 182 C-271.34 182 -270.68 182 -270 182 C-269.89300781 180.79859375 -269.78601563 179.5971875 -269.67578125 178.359375 C-268.9507018 171.90253625 -267.56027607 165.59435446 -266.1875 159.25 C-266.04193665 158.57323212 -265.89637329 157.89646423 -265.74639893 157.19918823 C-264.71834688 152.42401847 -263.67589244 147.65207603 -262.62994385 142.88079834 C-261.94168067 139.73329969 -261.25856289 136.58470611 -260.57568359 133.43603516 C-259.28636057 127.49994339 -257.98036078 121.56769131 -256.66494751 115.6373291 C-256.14130015 113.26761492 -255.62202157 110.89693083 -255.10726929 108.52526855 C-254.37336364 105.15059008 -253.62225385 101.7801547 -252.8671875 98.41015625 C-252.65269455 97.40708939 -252.4382016 96.40402252 -252.21720886 95.37055969 C-250.3689367 87.25583403 -247.48231392 79.40913732 -242 73 C-241.34 73 -240.68 73 -240 73 C-240 72.34 -240 71.68 -240 71 C-237.98828125 69.5625 -237.98828125 69.5625 -235.3125 68 C-234.44238281 67.484375 -233.57226562 66.96875 -232.67578125 66.4375 C-223.04704224 61.26468838 -210.08672437 61.13422963 -199.54296875 63.91015625 C-194.48990027 66.32414135 -190.59703308 69.74035557 -187 74 C-187 74.66 -187 75.32 -187 76 C-186.34 76 -185.68 76 -185 76 C-184.52691406 76.95777344 -184.05382812 77.91554688 -183.56640625 78.90234375 C-179.97785582 86.1373541 -176.31951428 93.32149954 -172.5 100.4375 C-169.5149004 106.01100187 -166.7117189 111.6344692 -164.0625 117.375 C-160.81894117 124.40230281 -157.2984428 131.25095339 -153.6628418 138.08276367 C-149.98506155 144.99607306 -146.46064795 151.97557222 -143 159 C-142.38125 158.175 -141.7625 157.35 -141.125 156.5 C-140.42375 155.675 -139.7225 154.85 -139 154 C-138.34 154 -137.68 154 -137 154 C-136.6596875 153.01 -136.6596875 153.01 -136.3125 152 C-134.6121185 148.11341372 -132.60376916 144.36320183 -130 141 C-129.34 141 -128.68 141 -128 141 C-127.73960937 140.27296875 -127.47921875 139.5459375 -127.2109375 138.796875 C-125.96148834 135.91105049 -124.51682472 133.7564682 -122.625 131.25 C-119.08373376 126.47921636 -115.61134161 121.6683499 -112.1875 116.8125 C-111.67815918 116.09078613 -111.16881836 115.36907227 -110.64404297 114.62548828 C-106.67747325 108.99153865 -102.77142542 103.31755465 -98.88598633 97.62744141 C-95.51974243 92.71234258 -92.03685862 87.90218098 -88.4609375 83.13671875 C-86.83894961 80.97419211 -86.83894961 80.97419211 -86 78 C-84.67509634 76.65828995 -83.34061251 75.32601419 -82 74 C-80.81128931 72.34242431 -79.66937129 70.65080856 -78.5625 68.9375 C-74.77917756 63.15842113 -70.90701729 57.44620716 -67 51.75 C-66.41162354 50.89140381 -65.82324707 50.03280762 -65.21704102 49.14819336 C-63.81199258 47.09836101 -62.40632397 45.04895736 -61 43 C-61.7434668 42.86190918 -62.48693359 42.72381836 -63.25292969 42.58154297 C-67.06118003 41.77535275 -70.60374775 40.46939157 -74.25 39.125 C-74.9821875 38.86847656 -75.714375 38.61195313 -76.46875 38.34765625 C-78.34814331 37.65506501 -80.17958393 36.83539641 -82 36 C-82.33 35.01 -82.66 34.02 -83 33 C-81.91203125 32.55269531 -80.8240625 32.10539062 -79.703125 31.64453125 C-78.21872457 31.03391599 -76.73435153 30.42323414 -75.25 29.8125 C-74.47156738 29.49224854 -73.69313477 29.17199707 -72.89111328 28.84204102 C-68.54692758 27.05339042 -64.2077609 25.2536984 -59.875 23.4375 C-54.78964961 21.31279881 -49.67541357 19.26386801 -44.55493164 17.22583008 C-40.79278483 15.72566386 -37.04627196 14.1943428 -33.3125 12.625 C-25.28010334 9.25622162 -17.1816384 6.04872357 -9.08642578 2.83447266 C-7.39433282 2.15771467 -5.70963421 1.46248889 -4.02734375 0.76171875 C-2 0 -2 0 0 0 Z " fill="#2489F4" transform="translate(372,103)"/>
<path d="M0 0 C13.77468424 0.41007179 28.22317699 1.84219742 40.57421875 8.4609375 C40.57421875 9.1209375 40.57421875 9.7809375 40.57421875 10.4609375 C41.89421875 10.4609375 43.21421875 10.4609375 44.57421875 10.4609375 C44.57421875 11.1209375 44.57421875 11.7809375 44.57421875 12.4609375 C45.425 12.60402344 45.425 12.60402344 46.29296875 12.75 C49.09745933 13.6240022 50.79771257 14.98822529 53.07421875 16.8359375 C54.2034375 17.74472656 54.2034375 17.74472656 55.35546875 18.671875 C56.08765625 19.26226562 56.81984375 19.85265625 57.57421875 20.4609375 C58.32703125 20.98945313 59.07984375 21.51796875 59.85546875 22.0625 C60.42265625 22.52398437 60.98984375 22.98546875 61.57421875 23.4609375 C61.57421875 24.1209375 61.57421875 24.7809375 61.57421875 25.4609375 C62.23421875 25.4609375 62.89421875 25.4609375 63.57421875 25.4609375 C74.4042335 37.32452212 80.87446038 51.99302115 84.57421875 67.4609375 C84.8357373 68.35619141 84.8357373 68.35619141 85.10253906 69.26953125 C90.10608488 92.51581867 82.97646652 114.13593098 72.57421875 134.4609375 C71.91421875 134.4609375 71.25421875 134.4609375 70.57421875 134.4609375 C70.34734375 135.1621875 70.12046875 135.8634375 69.88671875 136.5859375 C68.23580587 140.20222285 66.28333525 142.54863726 63.57421875 145.4609375 C62.91421875 145.4609375 62.25421875 145.4609375 61.57421875 145.4609375 C61.57421875 146.1209375 61.57421875 146.7809375 61.57421875 147.4609375 C49.36524165 158.79239437 35.13374624 166.86160707 18.57421875 169.4609375 C17.37732422 169.65429688 17.37732422 169.65429688 16.15625 169.8515625 C-6.3480817 172.87869384 -28.47581491 167.60501878 -47.109375 154.5859375 C-49.63856733 152.62887136 -52.04196428 150.59239599 -54.42578125 148.4609375 C-55.25851562 147.72230469 -56.09125 146.98367188 -56.94921875 146.22265625 C-65.99314722 137.72136349 -76.80893701 124.15071503 -78.42578125 111.4609375 C-77.21960287 108.83664242 -76.04213743 106.81046788 -74.42578125 104.4609375 C-73.44360801 102.92082947 -72.46186036 101.38044997 -71.48046875 99.83984375 C-70.42305815 98.23273706 -69.36312282 96.62728895 -68.30078125 95.0234375 C-67.49447266 93.78303711 -67.49447266 93.78303711 -66.671875 92.51757812 C-66.15496094 91.73705078 -65.63804687 90.95652344 -65.10546875 90.15234375 C-64.63866699 89.44279541 -64.17186523 88.73324707 -63.69091797 88.00219727 C-63.27342285 87.49358154 -62.85592773 86.98496582 -62.42578125 86.4609375 C-61.76578125 86.4609375 -61.10578125 86.4609375 -60.42578125 86.4609375 C-60.42578125 85.4709375 -60.42578125 84.4809375 -60.42578125 83.4609375 C-59.76578125 83.4609375 -59.10578125 83.4609375 -58.42578125 83.4609375 C-58.08546875 82.4709375 -58.08546875 82.4709375 -57.73828125 81.4609375 C-56.03789975 77.57435122 -54.02955041 73.82413933 -51.42578125 70.4609375 C-50.76578125 70.4609375 -50.10578125 70.4609375 -49.42578125 70.4609375 C-49.18859375 69.78675781 -48.95140625 69.11257813 -48.70703125 68.41796875 C-47.11550279 64.74483751 -45.09064042 61.50638998 -42.92578125 58.1484375 C-42.52230469 57.50326172 -42.11882812 56.85808594 -41.703125 56.19335938 C-40.66732383 54.57812488 -39.55237577 53.01420867 -38.42578125 51.4609375 C-37.76578125 51.4609375 -37.10578125 51.4609375 -36.42578125 51.4609375 C-36.1625708 50.73600098 -35.89936035 50.01106445 -35.62817383 49.26416016 C-34.40421843 46.41066658 -32.97736111 44.14161742 -31.1875 41.609375 C-30.5380542 40.68423096 -29.8886084 39.75908691 -29.21948242 38.8059082 C-28.52443604 37.82581787 -27.82938965 36.84572754 -27.11328125 35.8359375 C-25.66468737 33.77521547 -24.21678159 31.71400957 -22.76953125 29.65234375 C-22.0425 28.61867676 -21.31546875 27.58500977 -20.56640625 26.52001953 C-16.82977589 21.18014973 -13.16528312 15.79132488 -9.50073242 10.40185547 C-8.75786987 9.31155029 -8.75786987 9.31155029 -8 8.19921875 C-7.57291748 7.57055908 -7.14583496 6.94189941 -6.70581055 6.29418945 C-6.28340088 5.68921631 -5.86099121 5.08424316 -5.42578125 4.4609375 C-4.92771973 3.73334229 -4.4296582 3.00574707 -3.91650391 2.25610352 C-2.42578125 0.4609375 -2.42578125 0.4609375 0 0 Z M-35.92578125 56.2109375 C-37.70313135 58.42626874 -37.70313135 58.42626874 -37.42578125 61.4609375 C-38.08578125 61.4609375 -38.74578125 61.4609375 -39.42578125 61.4609375 C-39.42578125 62.7809375 -39.42578125 64.1009375 -39.42578125 65.4609375 C-40.08578125 65.4609375 -40.74578125 65.4609375 -41.42578125 65.4609375 C-43.82695607 72.3220926 -44.97445555 78.50812154 -44.92578125 85.7734375 C-44.92513672 86.6811792 -44.92449219 87.5889209 -44.92382812 88.52416992 C-44.75217017 96.31868681 -43.04302627 102.49774083 -39.42578125 109.4609375 C-38.76578125 109.4609375 -38.10578125 109.4609375 -37.42578125 109.4609375 C-37.34328125 110.0178125 -37.26078125 110.5746875 -37.17578125 111.1484375 C-36.18682584 114.19771669 -34.57820659 116.11283713 -32.42578125 118.4609375 C-31.76578125 118.4609375 -31.10578125 118.4609375 -30.42578125 118.4609375 C-30.42578125 119.1209375 -30.42578125 119.7809375 -30.42578125 120.4609375 C-29.76578125 120.4609375 -29.10578125 120.4609375 -28.42578125 120.4609375 C-28.42578125 121.1209375 -28.42578125 121.7809375 -28.42578125 122.4609375 C-18.07681266 129.72797974 -6.2594708 134.64525449 6.57421875 133.4609375 C15.93740093 131.81850085 25.24183521 128.72679253 32.57421875 122.4609375 C32.57421875 121.8009375 32.57421875 121.1409375 32.57421875 120.4609375 C33.17363281 120.21214844 33.77304687 119.96335937 34.390625 119.70703125 C38.40671295 117.41520288 40.28714835 113.36655003 42.57421875 109.4609375 C43.05632812 108.64367187 43.5384375 107.82640625 44.03515625 106.984375 C49.10460638 97.28502244 49.98329367 85.36116035 47.296875 74.7578125 C44.84737119 66.97236255 41.94824693 60.65981651 36.57421875 54.4609375 C35.99929688 53.7803125 35.424375 53.0996875 34.83203125 52.3984375 C27.08059457 43.90723716 16.51546113 38.95224046 5.1015625 38.24609375 C-11.96812786 37.81892432 -24.47611728 43.61630713 -35.92578125 56.2109375 Z " fill="#1D8DFA" transform="translate(334.42578125,192.5390625)"/>
<path d="M0 0 C10.01946402 4.48949061 15.99014815 15.44910779 19.78125 25.34765625 C21.10874282 31.90902202 19.62173937 37.7102029 17.703125 44 C16.48940722 48.40744125 15.6441332 52.8603335 14.78125 57.34765625 C13.58035455 63.54007503 12.24850278 69.60584828 10.4921875 75.66796875 C9.62576157 78.93372803 8.9851241 82.21794181 8.34375 85.53515625 C7.36999118 90.56375176 6.27477127 95.51645465 5.00390625 100.48046875 C3.36455243 106.94668022 1.80078742 113.42832994 0.2734375 119.921875 C-0.04733513 121.2822715 -0.04733513 121.2822715 -0.37458801 122.67015076 C-1.25718463 126.41454818 -2.13881621 130.15915746 -3.01513672 133.9050293 C-3.66545738 136.6823118 -4.32061731 139.45841634 -4.9765625 142.234375 C-5.1724295 143.07707443 -5.36829651 143.91977386 -5.57009888 144.78800964 C-5.75724457 145.5768605 -5.94439026 146.36571136 -6.13720703 147.1784668 C-6.29834991 147.86522995 -6.4594928 148.5519931 -6.6255188 149.25956726 C-7.31307088 151.67965226 -8.28438396 154.01174114 -9.21875 156.34765625 C-24.06875 156.34765625 -38.91875 156.34765625 -54.21875 156.34765625 C-55.73206548 153.32102528 -54.66411388 151.23311128 -53.890625 147.9765625 C-53.66611664 147.02111794 -53.66611664 147.02111794 -53.43707275 146.04637146 C-53.11736709 144.69136201 -52.79433102 143.33713477 -52.46826172 141.98364258 C-51.97857132 139.95092483 -51.49806268 137.91622959 -51.01953125 135.88085938 C-49.66735924 130.16461436 -48.27719717 124.46735694 -46.68359375 118.8125 C-44.80857193 112.06128966 -43.43345245 105.20979268 -42.03125 98.34765625 C-41.75610584 97.02599033 -41.48071653 95.70437543 -41.20507812 94.3828125 C-39.76243944 87.91590345 -39.76243944 87.91590345 -39.21875 81.34765625 C-38.55875 81.34765625 -37.89875 81.34765625 -37.21875 81.34765625 C-37.11820313 80.17460937 -37.01765625 79.0015625 -36.9140625 77.79296875 C-36.13723063 70.84478963 -34.57210594 64.04734932 -33.09375 57.22265625 C-32.7842382 55.77876699 -32.47491503 54.33483729 -32.16577148 52.89086914 C-28.97010808 38.01641353 -25.61326934 23.17782318 -22.21875 8.34765625 C-21.55875 8.34765625 -20.89875 8.34765625 -20.21875 8.34765625 C-20.115625 7.74953125 -20.0125 7.15140625 -19.90625 6.53515625 C-18.90047373 3.33495902 -17.26042516 1.95961229 -14.41015625 0.28515625 C-9.86560463 -1.65903696 -4.69397556 -1.38009493 0 0 Z " fill="#154BB9" transform="translate(139.21875,203.65234375)"/>
<path d="M0 0 C3.86846864 2.46878635 7.04353333 5.37392105 10 8.875 C10 9.535 10 10.195 10 10.875 C10.66 10.875 11.32 10.875 12 10.875 C12.47308594 11.83277344 12.94617188 12.79054687 13.43359375 13.77734375 C17.02214418 21.0123541 20.68048572 28.19649954 24.5 35.3125 C27.85207683 41.57118781 30.9374004 47.91293663 33.91015625 54.35913086 C36.81623109 60.60676272 40.01919131 66.67586735 43.27124023 72.74902344 C46.57870926 78.96534771 49.61276122 85.28168566 52.48828125 91.70898438 C53.97833104 95.46109758 53.97833104 95.46109758 57 97.875 C57 98.865 57 99.855 57 100.875 C56.34 100.875 55.68 100.875 55 100.875 C54.505 102.36 54.505 102.36 54 103.875 C53.030625 104.679375 52.06125 105.48375 51.0625 106.3125 C48.04610614 108.48590759 48.04610614 108.48590759 47.140625 110.6171875 C45.44629082 113.97104077 43.08587025 116.68636676 40.6875 119.5625 C40.21376953 120.15611328 39.74003906 120.74972656 39.25195312 121.36132812 C37.1334461 123.90295693 35.56413552 125.68131629 32.39453125 126.76953125 C26.32383808 127.03691904 26.32383808 127.03691904 24 125.875 C24.33 126.865 24.66 127.855 25 128.875 C24.0625 131.0625 24.0625 131.0625 23 132.875 C23.66 133.535 24.32 134.195 25 134.875 C25.39764263 136.86321313 25.73775349 138.86444339 26 140.875 C24.1875 140.75 24.1875 140.75 22 139.875 C19 134.83928571 19 134.83928571 19 131.875 C18.34 131.545 17.68 131.215 17 130.875 C16.2973675 129.29841412 15.60496038 127.71672816 14.95507812 126.11767578 C12.95032371 121.41019263 10.55230611 116.87965023 8.25 112.3125 C7.16531262 110.15367194 6.08067688 107.99481794 4.99609375 105.8359375 C4.47644043 104.80307617 3.95678711 103.77021484 3.42138672 102.70605469 C2.2653391 100.40349059 1.11528051 98.09830312 -0.02734375 95.7890625 C-2.43229607 90.93388817 -4.86779722 86.10272008 -7.421875 81.32421875 C-7.83864502 80.54425537 -8.25541504 79.76429199 -8.68481445 78.96069336 C-9.50472386 77.43193225 -10.3286295 75.90530606 -11.15698242 74.38110352 C-14 69.09218631 -14 69.09218631 -14 66.875 C-14.66 66.875 -15.32 66.875 -16 66.875 C-16.24234375 65.72386719 -16.4846875 64.57273437 -16.734375 63.38671875 C-17.90375324 58.72869544 -19.87526187 54.83733503 -22.25 50.6875 C-22.61996094 50.00236328 -22.98992187 49.31722656 -23.37109375 48.61132812 C-26.41956712 43.20627039 -29.83472029 39.72141316 -35.25 36.5625 C-41.23267262 35.06683185 -48.50989431 34.85544187 -54 37.875 C-55.45160938 40.89279872 -55.45160938 40.89279872 -56 43.875 C-57.57762598 38.93435435 -56.16943296 34.73355974 -55 29.8125 C-54.66585083 28.40254761 -54.66585083 28.40254761 -54.32495117 26.96411133 C-52.4916131 19.76948807 -50.15548041 13.42006331 -45 7.875 C-44.34 7.875 -43.68 7.875 -43 7.875 C-43 7.215 -43 6.555 -43 5.875 C-40.98828125 4.4375 -40.98828125 4.4375 -38.3125 2.875 C-37.44238281 2.359375 -36.57226562 1.84375 -35.67578125 1.3125 C-25.89278553 -3.94318237 -10.21434194 -4.87966259 0 0 Z " fill="#1D66E0" transform="translate(175,168.125)"/>
<path d="M0 0 C0.495 0.99 0.495 0.99 1 2 C0.67 2.66 0.34 3.32 0 4 C2.31 4.33 4.62 4.66 7 5 C4.76474261 7.32122883 2.50543564 9.40183354 0 11.4375 C-3.70670729 14.60364581 -6.44701253 17.34103758 -8 22 C-8.66 22 -9.32 22 -10 22 C-10 23.32 -10 24.64 -10 26 C-10.66 26 -11.32 26 -12 26 C-13.62770276 33.04760662 -14.53963096 40.09271774 -15.21435547 47.28491211 C-15.78445685 52.78445685 -15.78445685 52.78445685 -18 55 C-18.33 52.69 -18.66 50.38 -19 48 C-20.14926266 48.95421808 -21.29430541 49.91352045 -22.4375 50.875 C-23.07558594 51.40867187 -23.71367187 51.94234375 -24.37109375 52.4921875 C-26.10805004 53.9222757 -26.10805004 53.9222757 -27 56 C-27.804375 56.433125 -28.60875 56.86625 -29.4375 57.3125 C-32.41434947 59.27286429 -33.00305041 60.64662411 -34 64 C-35.32 64 -36.64 64 -38 64 C-38.66 65.32 -39.32 66.64 -40 68 C-39.01 68.33 -38.02 68.66 -37 69 C-37.66 69.99 -38.32 70.98 -39 72 C-41.41068853 76.1507982 -41.33170529 79.27319955 -41 84 C-40.34 84.33 -39.68 84.66 -39 85 C-38.375 87.0625 -38.375 87.0625 -38 89 C-38.66 89 -39.32 89 -40 89 C-40 88.34 -40 87.68 -40 87 C-40.598125 86.79761719 -41.19625 86.59523438 -41.8125 86.38671875 C-44.93290853 84.40860263 -45.62568486 82.20534051 -47 78.8125 C-47.474375 77.70519531 -47.94875 76.59789062 -48.4375 75.45703125 C-49.18962322 70.83460731 -47.55601672 68.63494534 -45 65 C-44.01631736 63.4608556 -43.03465796 61.92041684 -42.0546875 60.37890625 C-40.9972769 58.77179956 -39.93734157 57.16635145 -38.875 55.5625 C-38.06869141 54.32209961 -38.06869141 54.32209961 -37.24609375 53.05664062 C-36.72917969 52.27611328 -36.21226562 51.49558594 -35.6796875 50.69140625 C-35.21288574 49.98185791 -34.74608398 49.27230957 -34.26513672 48.54125977 C-33.8476416 48.03264404 -33.43014648 47.52402832 -33 47 C-32.34 47 -31.68 47 -31 47 C-31 46.01 -31 45.02 -31 44 C-30.34 44 -29.68 44 -29 44 C-28.773125 43.34 -28.54625 42.68 -28.3125 42 C-26.6121185 38.11341372 -24.60376916 34.36320183 -22 31 C-21.34 31 -20.68 31 -20 31 C-19.7628125 30.32582031 -19.525625 29.65164063 -19.28125 28.95703125 C-17.68972154 25.28390001 -15.66485917 22.04545248 -13.5 18.6875 C-13.09652344 18.04232422 -12.69304687 17.39714844 -12.27734375 16.73242188 C-11.24154258 15.11718738 -10.12659452 13.55327117 -9 12 C-8.34 12 -7.68 12 -7 12 C-6.6596875 10.9790625 -6.6596875 10.9790625 -6.3125 9.9375 C-4.64427643 6.20385676 -2.44270392 3.27836579 0 0 Z " fill="#2661C6" transform="translate(305,232)"/>
<path d="M0 0 C13.77468424 0.41007179 28.22317699 1.84219742 40.57421875 8.4609375 C40.57421875 9.1209375 40.57421875 9.7809375 40.57421875 10.4609375 C41.89421875 10.4609375 43.21421875 10.4609375 44.57421875 10.4609375 C44.57421875 11.1209375 44.57421875 11.7809375 44.57421875 12.4609375 C45.425 12.60402344 45.425 12.60402344 46.29296875 12.75 C49.09745933 13.6240022 50.79771257 14.98822529 53.07421875 16.8359375 C53.82703125 17.44179687 54.57984375 18.04765625 55.35546875 18.671875 C56.08765625 19.26226562 56.81984375 19.85265625 57.57421875 20.4609375 C58.32703125 20.98945313 59.07984375 21.51796875 59.85546875 22.0625 C60.70625 22.75472656 60.70625 22.75472656 61.57421875 23.4609375 C61.57421875 24.1209375 61.57421875 24.7809375 61.57421875 25.4609375 C62.23421875 25.4609375 62.89421875 25.4609375 63.57421875 25.4609375 C70.38798667 33.03795845 75.84125078 41.98494189 79.57421875 51.4609375 C79.07921875 52.4509375 79.07921875 52.4509375 78.57421875 53.4609375 C75.57421875 48.7109375 75.57421875 48.7109375 75.57421875 46.4609375 C73.92421875 46.7909375 72.27421875 47.1209375 70.57421875 47.4609375 C70.73921875 46.7184375 70.90421875 45.9759375 71.07421875 45.2109375 C71.69347571 42.27087172 71.69347571 42.27087172 71.57421875 38.4609375 C69.59421875 38.1309375 67.61421875 37.8009375 65.57421875 37.4609375 C64.91421875 35.1509375 64.25421875 32.8409375 63.57421875 30.4609375 C62.58421875 30.4609375 61.59421875 30.4609375 60.57421875 30.4609375 C59.08921875 29.9659375 59.08921875 29.9659375 57.57421875 29.4609375 C57.57421875 27.8109375 57.57421875 26.1609375 57.57421875 24.4609375 C56.43984375 24.0690625 55.30546875 23.6771875 54.13671875 23.2734375 C50.57421875 21.4609375 50.57421875 21.4609375 49.63671875 18.7734375 C49.61609375 18.0103125 49.59546875 17.2471875 49.57421875 16.4609375 C48.52234375 16.3371875 47.47046875 16.2134375 46.38671875 16.0859375 C41.95248322 15.35901364 38.77984936 14.66656811 35.57421875 11.4609375 C30.60770072 7.03134034 26.24338363 6.96314693 19.6953125 6.83203125 C16.22800921 6.41977366 14.50367066 5.27395334 11.57421875 3.4609375 C9.13897331 3.10299418 9.13897331 3.10299418 6.76171875 3.2734375 C5.97152344 3.30050781 5.18132812 3.32757813 4.3671875 3.35546875 C3.47966797 3.40767578 3.47966797 3.40767578 2.57421875 3.4609375 C2.24421875 4.1209375 1.91421875 4.7809375 1.57421875 5.4609375 C0.91421875 5.4609375 0.25421875 5.4609375 -0.42578125 5.4609375 C-0.09578125 6.4509375 0.23421875 7.4409375 0.57421875 8.4609375 C-0.41578125 9.1209375 -1.40578125 9.7809375 -2.42578125 10.4609375 C-2.75578125 9.8009375 -3.08578125 9.1409375 -3.42578125 8.4609375 C-4.35390625 9.6675 -4.35390625 9.6675 -5.30078125 10.8984375 C-7.42578125 13.4609375 -7.42578125 13.4609375 -9.42578125 14.4609375 C-9.42578125 16.1109375 -9.42578125 17.7609375 -9.42578125 19.4609375 C-13.38578125 21.4409375 -13.38578125 21.4409375 -17.42578125 23.4609375 C-16.06979506 20.74896511 -14.81032834 18.41375525 -13.1484375 15.9296875 C-12.71724609 15.28386719 -12.28605469 14.63804687 -11.84179688 13.97265625 C-11.39513672 13.30878906 -10.94847656 12.64492187 -10.48828125 11.9609375 C-9.8240918 10.96513672 -9.8240918 10.96513672 -9.14648438 9.94921875 C-8.2909474 8.67165087 -7.42836059 7.39876797 -6.55786133 6.13134766 C-5.64582881 4.78562273 -4.78497374 3.40529144 -3.94140625 2.015625 C-2.42578125 0.4609375 -2.42578125 0.4609375 0 0 Z " fill="#5AC1F3" transform="translate(334.42578125,192.5390625)"/>
<path d="M0 0 C0.99 0.33 1.98 0.66 3 1 C3 5.29 3 9.58 3 14 C2.67 12.68 2.34 11.36 2 10 C0.85073734 10.95421808 -0.29430541 11.91352045 -1.4375 12.875 C-2.07558594 13.40867187 -2.71367187 13.94234375 -3.37109375 14.4921875 C-5.10805004 15.9222757 -5.10805004 15.9222757 -6 18 C-7.2065625 18.6496875 -7.2065625 18.6496875 -8.4375 19.3125 C-11.41434947 21.27286429 -12.00305041 22.64662411 -13 26 C-14.32 26 -15.64 26 -17 26 C-17.66 27.32 -18.32 28.64 -19 30 C-18.01 30.33 -17.02 30.66 -16 31 C-16.99 32.485 -16.99 32.485 -18 34 C-20.41068853 38.1507982 -20.33170529 41.27319955 -20 46 C-19.34 46.33 -18.68 46.66 -18 47 C-17.375 49.0625 -17.375 49.0625 -17 51 C-17.66 51 -18.32 51 -19 51 C-19 50.34 -19 49.68 -19 49 C-19.598125 48.79761719 -20.19625 48.59523438 -20.8125 48.38671875 C-25.48384088 45.4254223 -26.83511818 39.15522167 -28 34 C-26.84264938 30.58581567 -26.22510854 29.56568638 -24 27 C-22.73953699 25.19476061 -21.49000546 23.38185228 -20.25 21.5625 C-19.16963882 20.03955389 -18.08732644 18.51798101 -17 17 C-16.67 17.99 -16.34 18.98 -16 20 C-15.34 19.01 -14.68 18.02 -14 17 C-13.36320312 16.68933594 -12.72640625 16.37867188 -12.0703125 16.05859375 C-9.5534615 14.7716756 -8.50491759 13.35377159 -6.875 11.0625 C-6.37742187 10.37285156 -5.87984375 9.68320312 -5.3671875 8.97265625 C-4.2268892 7.3273687 -3.11040551 5.66560827 -2 4 C-1.34 4 -0.68 4 0 4 C0 2.68 0 1.36 0 0 Z " fill="#3463C5" transform="translate(284,270)"/>
<path d="M0 0 C0.99 0 1.98 0 3 0 C3 1.65 3 3.3 3 5 C3.86512207 4.67402832 4.73024414 4.34805664 5.62158203 4.01220703 C8.98793791 3.00361392 11.55922233 2.76865178 15.0546875 2.8046875 C16.71757812 2.81435547 16.71757812 2.81435547 18.4140625 2.82421875 C19.55617188 2.84097656 20.69828125 2.85773438 21.875 2.875 C23.62296875 2.88853516 23.62296875 2.88853516 25.40625 2.90234375 C28.27104577 2.92582568 31.13541535 2.95866859 34 3 C34 3.66 34 4.32 34 5 C35.04800781 5.03738281 36.09601563 5.07476562 37.17578125 5.11328125 C38.55472305 5.17894515 39.93362771 5.24539235 41.3125 5.3125 C42.00279297 5.33505859 42.69308594 5.35761719 43.40429688 5.38085938 C48.55674183 5.6546608 48.55674183 5.6546608 50.98046875 7.54296875 C51.31691406 8.02378906 51.65335937 8.50460938 52 9 C51.67 9.66 51.34 10.32 51 11 C54.3340947 13.19097652 57.04179141 14.43454163 61 15 C60.34 16.98 59.68 18.96 59 21 C59.474375 21.350625 59.94875 21.70125 60.4375 22.0625 C62.67873825 24.84163543 62.67117658 27.5144717 63 31 C62.484375 30.34 61.96875 29.68 61.4375 29 C52.16543588 17.58822877 43.34569975 8.25194081 28 6 C19.09885956 5.47101794 11.41444316 5.90669042 3 9 C1.67094246 9.34999278 0.33866149 9.68875365 -1 10 C-1 9.01 -1 8.02 -1 7 C-0.34 7 0.32 7 1 7 C0.67 4.69 0.34 2.38 0 0 Z " fill="#55BCEE" transform="translate(315,226)"/>
<path d="M0 0 C4.6766232 3.87491637 6.5942334 8.08627551 8.88671875 13.671875 C9.776079 16.14386762 9.776079 16.14386762 12 17 C12 17.99 12 18.98 12 20 C11.34 20 10.68 20 10 20 C9.505 21.485 9.505 21.485 9 23 C8.030625 23.804375 7.06125 24.60875 6.0625 25.4375 C3.04610614 27.61090759 3.04610614 27.61090759 2.140625 29.7421875 C0.44629082 33.09604077 -1.91412975 35.81136676 -4.3125 38.6875 C-4.78623047 39.28111328 -5.25996094 39.87472656 -5.74804688 40.48632812 C-7.97529037 43.15841095 -9.49197181 44.84085027 -12.85546875 45.89453125 C-13.91701172 45.94673828 -13.91701172 45.94673828 -15 46 C-15 45.34 -15 44.68 -15 44 C-20.445 44.495 -20.445 44.495 -26 45 C-26 44.01 -26 43.02 -26 42 C-26.66 41.67 -27.32 41.34 -28 41 C-27.05125 41.020625 -26.1025 41.04125 -25.125 41.0625 C-22.09333717 41.22551826 -22.09333717 41.22551826 -20 40 C-19.21625 40.185625 -18.4325 40.37125 -17.625 40.5625 C-14.53241486 41.07793086 -13.56889983 40.71259989 -11 39 C-9.39588754 37.64594139 -9.39588754 37.64594139 -8 36 C-7.46375 35.4225 -6.9275 34.845 -6.375 34.25 C-4.53797161 31.24395355 -4.33366263 28.47009136 -4 25 C-0.6828589 23.5783681 2.44219804 22.60990891 6 22 C5.34 21.34 4.68 20.68 4 20 C4.33 19.34 4.66 18.68 5 18 C4.75213734 15.783481 4.42916475 13.57498848 4.0625 11.375 C3.77052734 9.59222656 3.77052734 9.59222656 3.47265625 7.7734375 C3.31667969 6.85820312 3.16070312 5.94296875 3 5 C2.34 5 1.68 5 1 5 C0.67 3.35 0.34 1.7 0 0 Z " fill="#206CE4" transform="translate(220,249)"/>
<path d="M0 0 C-3.75 3 -3.75 3 -6 3 C-6.33 3.99 -6.66 4.98 -7 6 C-7.99 6.0825 -8.98 6.165 -10 6.25 C-15.27808469 7.01167482 -20.14295527 9.08105377 -23.875 12.9375 C-25.1271259 15.23306414 -26.11221639 17.5415223 -27 20 C-26.01 20.33 -25.02 20.66 -24 21 C-22.31970006 21.97691857 -20.65071396 22.97388051 -19 24 C-21.66858151 25.02493529 -22.80702744 25.06737786 -25.55078125 24.109375 C-26.91783203 23.43648437 -26.91783203 23.43648437 -28.3125 22.75 C-29.27414062 22.28722656 -30.23578125 21.82445312 -31.2265625 21.34765625 C-32.14179688 20.90292969 -33.05703125 20.45820313 -34 20 C-36.32329515 18.97407757 -38.66021271 17.98791019 -41 17 C-41 16.34 -41 15.68 -41 15 C-39.91203125 14.55269531 -38.8240625 14.10539063 -37.703125 13.64453125 C-30.98392376 10.88059906 -24.26521558 8.11625031 -17.5625 5.3125 C-16.62792969 4.92449219 -15.69335938 4.53648438 -14.73046875 4.13671875 C-12.8546606 3.35580291 -10.98242853 2.56625844 -9.11328125 1.76953125 C-8.20964844 1.39183594 -7.30601562 1.01414062 -6.375 0.625 C-5.57835937 0.28726563 -4.78171875 -0.05046875 -3.9609375 -0.3984375 C-2 -1 -2 -1 0 0 Z " fill="#2495F6" transform="translate(330,121)"/>
<path d="M0 0 C3 1 3 1 5 4 C5.99 4 6.98 4 8 4 C8.33 4.99 8.66 5.98 9 7 C8.67 7.66 8.34 8.32 8 9 C9.32 8.67 10.64 8.34 12 8 C12 7.34 12 6.68 12 6 C13.65 6.33 15.3 6.66 17 7 C16.44010697 10.99012371 15.24330232 13.5255052 12.9375 16.8125 C12.11572266 17.99779297 12.11572266 17.99779297 11.27734375 19.20703125 C10.85582031 19.79871094 10.43429688 20.39039063 10 21 C6.53910893 17.86908303 4.41484742 14.58894095 2.1875 10.5 C1.24970703 8.81390625 1.24970703 8.81390625 0.29296875 7.09375 C-1 4 -1 4 -0.69921875 1.59375 C-0.46847656 1.0678125 -0.23773438 0.541875 0 0 Z M6 9 C6.66 9.66 7.32 10.32 8 11 C8 10.34 8 9.68 8 9 C7.34 9 6.68 9 6 9 Z " fill="#3D6BC4" transform="translate(208,324)"/>
<path d="M0 0 C7.24156265 7.24156265 6.45233659 22.56327104 6.5 32 C6.37766038 47.96215667 3.28666939 60.8152836 -4 75 C-4.33 75 -4.66 75 -5 75 C-5 73.02 -5 71.04 -5 69 C-4.34 69 -3.68 69 -3 69 C-3.04125 68.29875 -3.0825 67.5975 -3.125 66.875 C-2.98331668 63.61628372 -2.13265314 61.0440053 -1 58 C-0.67 58 -0.34 58 0 58 C0.495 55.03 0.495 55.03 1 52 C1.66 52 2.32 52 3 52 C3 48.7 3 45.4 3 42 C3.66 42 4.32 42 5 42 C5 35.73 5 29.46 5 23 C4.34 23 3.68 23 3 23 C2.94392578 22.02160156 2.94392578 22.02160156 2.88671875 21.0234375 C2.48506238 15.68377043 1.83238391 11.6795908 -1 7 C-0.34 7 0.32 7 1 7 C0.67 4.69 0.34 2.38 0 0 Z " fill="#549EEB" transform="translate(414,246)"/>
<path d="M0 0 C0.33 1.32 0.66 2.64 1 4 C0.34 4 -0.32 4 -1 4 C-1 4.99 -1 5.98 -1 7 C-0.34 7.33 0.32 7.66 1 8 C0.195625 8.28875 -0.60875 8.5775 -1.4375 8.875 C-4.1326468 9.73262568 -4.1326468 9.73262568 -5 12 C-5.66 12 -6.32 12 -7 12 C-6.67 13.98 -6.34 15.96 -6 18 C-6.99 18.33 -7.98 18.66 -9 19 C-11.59367168 23.1306623 -12.34641555 26.15018224 -12 31 C-12.99 31 -13.98 31 -15 31 C-15.33 30.67 -15.66 30.34 -16 30 C-16 30.66 -16 31.32 -16 32 C-17.75 33.6875 -17.75 33.6875 -20 35 C-22.25 34.6875 -22.25 34.6875 -24 34 C-22.97432074 31.6067484 -22.02675094 30.0260737 -20.1484375 28.1953125 C-17.83127442 25.82759314 -16.16755972 23.40918851 -14.375 20.625 C-9.78153095 13.60479259 -4.90982178 6.80131051 0 0 Z " fill="#379CF4" transform="translate(308,151)"/>
<path d="M0 0 C6.09906847 0.17180475 11.52159386 0.66349523 17.36328125 2.4609375 C17.36328125 2.7909375 17.36328125 3.1209375 17.36328125 3.4609375 C19.83828125 3.9559375 19.83828125 3.9559375 22.36328125 4.4609375 C20.73828125 5.5859375 20.73828125 5.5859375 18.36328125 6.4609375 C12.9948602 5.09251645 12.9948602 5.09251645 11.36328125 3.4609375 C9.84400087 3.38913786 8.32160643 3.37701743 6.80078125 3.3984375 C5.97449219 3.40746094 5.14820313 3.41648438 4.296875 3.42578125 C3.33974609 3.44318359 3.33974609 3.44318359 2.36328125 3.4609375 C2.03328125 4.1209375 1.70328125 4.7809375 1.36328125 5.4609375 C0.70328125 5.4609375 0.04328125 5.4609375 -0.63671875 5.4609375 C-0.30671875 6.4509375 0.02328125 7.4409375 0.36328125 8.4609375 C-0.62671875 9.1209375 -1.61671875 9.7809375 -2.63671875 10.4609375 C-2.96671875 9.8009375 -3.29671875 9.1409375 -3.63671875 8.4609375 C-4.56484375 9.6675 -4.56484375 9.6675 -5.51171875 10.8984375 C-7.63671875 13.4609375 -7.63671875 13.4609375 -9.63671875 14.4609375 C-9.63671875 16.1109375 -9.63671875 17.7609375 -9.63671875 19.4609375 C-13.59671875 21.4409375 -13.59671875 21.4409375 -17.63671875 23.4609375 C-16.28073256 20.74896511 -15.02126584 18.41375525 -13.359375 15.9296875 C-12.92818359 15.28386719 -12.49699219 14.63804687 -12.05273438 13.97265625 C-11.60607422 13.30878906 -11.15941406 12.64492187 -10.69921875 11.9609375 C-10.0350293 10.96513672 -10.0350293 10.96513672 -9.35742188 9.94921875 C-8.5017324 8.67142314 -7.63866607 7.39852819 -6.76733398 6.13134766 C-5.85859833 4.78875009 -5.00727728 3.40738039 -4.17578125 2.015625 C-2.63671875 0.4609375 -2.63671875 0.4609375 0 0 Z " fill="#5CCEEF" transform="translate(334.63671875,192.5390625)"/>
<path d="M0 0 C0.99 0.33 1.98 0.66 3 1 C3 5.29 3 9.58 3 14 C2.67 12.68 2.34 11.36 2 10 C0.85073734 10.95421808 -0.29430541 11.91352045 -1.4375 12.875 C-2.07558594 13.40867187 -2.71367187 13.94234375 -3.37109375 14.4921875 C-5.10805004 15.9222757 -5.10805004 15.9222757 -6 18 C-7.2065625 18.6496875 -7.2065625 18.6496875 -8.4375 19.3125 C-11.41434947 21.27286429 -12.00305041 22.64662411 -13 26 C-14.32 26 -15.64 26 -17 26 C-18.7511573 27.4166747 -18.7511573 27.4166747 -20 29 C-19.67 27.02 -19.34 25.04 -19 23 C-17.02 22.34 -15.04 21.68 -13 21 C-13 19.68 -13 18.36 -13 17 C-12.01 16.34 -11.02 15.68 -10 15 C-8.93473001 13.72330238 -7.91622995 12.40668921 -6.9375 11.0625 C-6.43089844 10.37285156 -5.92429687 9.68320312 -5.40234375 8.97265625 C-4.23866389 7.33572498 -3.11406322 5.67109483 -2 4 C-1.34 4 -0.68 4 0 4 C0 2.68 0 1.36 0 0 Z " fill="#0C52D0" transform="translate(284,270)"/>
<path d="M0 0 C-0.33 0.99 -0.66 1.98 -1 3 C2.3340947 5.19097652 5.04179141 6.43454163 9 7 C8.34 8.98 7.68 10.96 7 13 C7.474375 13.350625 7.94875 13.70125 8.4375 14.0625 C10.67873825 16.84163543 10.67117658 19.5144717 11 23 C10.484375 22.34 9.96875 21.68 9.4375 21 C1.40565948 10.66834962 1.40565948 10.66834962 -9 3 C-8.6875 1.0625 -8.6875 1.0625 -8 -1 C-4.37673261 -2.2077558 -3.35853631 -1.54311128 0 0 Z " fill="#40B8F8" transform="translate(367,234)"/>
<path d="M0 0 C0.99 0 1.98 0 3 0 C3.20496094 0.78246094 3.40992188 1.56492187 3.62109375 2.37109375 C3.89050781 3.38300781 4.15992188 4.39492188 4.4375 5.4375 C4.83775391 6.95150391 4.83775391 6.95150391 5.24609375 8.49609375 C5.75978077 10.91752001 5.75978077 10.91752001 7 12 C7.12866355 14.51342743 7.18975358 16.98584754 7.1875 19.5 C7.1884668 20.59115112 7.1884668 20.59115112 7.18945312 21.7043457 C7.13678193 27.07381457 6.36517971 31.79525236 5 37 C4.82891416 39.87603698 4.82891416 39.87603698 5 42 C4.01 42 3.02 42 2 42 C1.690625 42.78375 1.38125 43.5675 1.0625 44.375 C0 47 0 47 -1 49 C-1.66 49 -2.32 49 -3 49 C-2.16655508 46.291304 -1.35639777 43.66349149 -0.01171875 41.16015625 C5.28243003 31.13015075 4.99313831 18.71429126 2 8 C1.62351724 6.45869476 1.24842311 4.91704938 0.875 3.375 C0.441875 1.704375 0.441875 1.704375 0 0 Z " fill="#59A6E9" transform="translate(378,257)"/>
<path d="M0 0 C0.99 0.33 1.98 0.66 3 1 C1.68 3.31 0.36 5.62 -1 8 C-1.66 8 -2.32 8 -3 8 C-3.20882813 8.65097656 -3.41765625 9.30195313 -3.6328125 9.97265625 C-5.53259103 14.17930871 -8.17382002 17.70961252 -10.875 21.4375 C-11.93560136 22.91485834 -12.99551048 24.39271391 -14.0546875 25.87109375 C-14.55709961 26.57089355 -15.05951172 27.27069336 -15.57714844 27.99169922 C-17.44277007 30.62495308 -19.22976207 33.30188374 -21 36 C-21.66 34.68 -22.32 33.36 -23 32 C-22.01 31.67 -21.02 31.34 -20 31 C-19.26676204 28.98491642 -19.26676204 28.98491642 -19 27 C-18.34 27 -17.68 27 -17 27 C-17 26.01 -17 25.02 -17 24 C-16.34 24 -15.68 24 -15 24 C-15.33 23.01 -15.66 22.02 -16 21 C-14 19 -14 19 -12 18 C-12.33 17.01 -12.66 16.02 -13 15 C-12.34 14.34 -11.68 13.68 -11 13 C-10.67 13 -10.34 13 -10 13 C-9.67 12.34 -9.34 11.68 -9 11 C-8.01 11.33 -7.02 11.66 -6 12 C-6 10.02 -6 8.04 -6 6 C-5.01 5.67 -4.02 5.34 -3 5 C-3 4.34 -3 3.68 -3 3 C-2.34 3 -1.68 3 -1 3 C-0.67 2.01 -0.34 1.02 0 0 Z " fill="#61B1F1" transform="translate(328,181)"/>
<path d="M0 0 C4.76560621 1.40164889 7.95882443 4.15411474 11 8 C11 8.66 11 9.32 11 10 C11.66 10 12.32 10 13 10 C13.72767003 11.23884319 14.43154815 12.49168341 15.125 13.75 C15.51945313 14.44609375 15.91390625 15.1421875 16.3203125 15.859375 C17 18 17 18 16.1171875 20.265625 C15.74851563 20.83796875 15.37984375 21.4103125 15 22 C14.67 21.01 14.34 20.02 14 19 C13.01 18.67 12.02 18.34 11 18 C9.60287726 16.04402816 8.26220093 14.04563599 7 12 C5.68 12.33 4.36 12.66 3 13 C3.33 11.35 3.66 9.7 4 8 C3.34 8 2.68 8 2 8 C1.34 5.36 0.68 2.72 0 0 Z " fill="#458AF0" transform="translate(174,169)"/>
<path d="M0 0 C0.33 0.66 0.66 1.32 1 2 C0.67 2.66 0.34 3.32 0 4 C2.31 4.33 4.62 4.66 7 5 C4.76474261 7.32122883 2.50543564 9.40183354 0 11.4375 C-3.7049123 14.60211259 -6.30948371 17.96422556 -9 22 C-9 20.68 -9 19.36 -9 18 C-9.99 18.33 -10.98 18.66 -12 19 C-10.125 14.25 -10.125 14.25 -9 12 C-8.34 12 -7.68 12 -7 12 C-6.773125 11.319375 -6.54625 10.63875 -6.3125 9.9375 C-4.64427643 6.20385676 -2.44270392 3.27836579 0 0 Z " fill="#5889D4" transform="translate(305,232)"/>
<path d="M0 0 C8.98465856 0.60912939 18.02244708 2.69250775 26 7 C26 7.66 26 8.32 26 9 C27.32 9 28.64 9 30 9 C30 9.66 30 10.32 30 11 C30.61875 11.12375 31.2375 11.2475 31.875 11.375 C34 12 34 12 36 14 C27.33274336 14.29380531 27.33274336 14.29380531 23 12 C22.34 11.34 21.68 10.68 21 10 C16.66411351 6.6724592 13.45022631 5.4360181 8 5 C8 4.67 8 4.34 8 4 C5.69 3.67 3.38 3.34 1 3 C0.67 2.01 0.34 1.02 0 0 Z " fill="#75DDF4" transform="translate(349,194)"/>
<path d="M0 0 C0.99 0 1.98 0 3 0 C3 0.66 3 1.32 3 2 C2.34 2 1.68 2 1 2 C1 2.66 1 3.32 1 4 C0.34 4 -0.32 4 -1 4 C-1.1546875 5.5778125 -1.1546875 5.5778125 -1.3125 7.1875 C-1.97949332 10.88628113 -2.74990008 13.02986811 -5 16 C-5.66 16 -6.32 16 -7 16 C-7.226875 16.680625 -7.45375 17.36125 -7.6875 18.0625 C-9.32410945 21.72538782 -11.44289112 24.9083039 -14 28 C-14.33 28 -14.66 28 -15 28 C-15.1875 25.6875 -15.1875 25.6875 -15 23 C-14 22 -13 21 -12 20 C-11.25740651 17.68970915 -10.588562 15.354248 -10 13 C-8.84775444 9.54326332 -7.28269287 8.53402375 -4.48828125 6.33984375 C-2.76544629 4.92044419 -2.76544629 4.92044419 -1.3125 2.1875 C-0.879375 1.465625 -0.44625 0.74375 0 0 Z " fill="#3579E4" transform="translate(252,288)"/>
<path d="M0 0 C-3.71209568 7.98663011 -9.69339627 17.32701196 -18 21 C-22.01241278 21.73132647 -25.92542948 21.9864181 -30 22 C-30 21.01 -30 20.02 -30 19 C-30.66 18.67 -31.32 18.34 -32 18 C-31.05125 18.020625 -30.1025 18.04125 -29.125 18.0625 C-26.09333717 18.22551826 -26.09333717 18.22551826 -24 17 C-23.21625 17.185625 -22.4325 17.37125 -21.625 17.5625 C-18.53241486 18.07793086 -17.56889983 17.71259989 -15 16 C-13.39588754 14.64594139 -13.39588754 14.64594139 -12 13 C-11.46375 12.4225 -10.9275 11.845 -10.375 11.25 C-8.74202392 8.91495257 -8.74202392 8.91495257 -8.5 5.375 C-8.335 4.26125 -8.17 3.1475 -8 2 C-4.77208445 -0.1519437 -3.71599191 -0.20086443 0 0 Z " fill="#093898" transform="translate(224,272)"/>
<path d="M0 0 C0.98120464 3.05263664 0.98120464 4.94736336 0 8 C-0.99 8 -1.98 8 -3 8 C-3.33 10.31 -3.66 12.62 -4 15 C-5.32 14.67 -6.64 14.34 -8 14 C-8 14.66 -8 15.32 -8 16 C-8.66 16.33 -9.32 16.66 -10 17 C-10.37125 18.60875 -10.37125 18.60875 -10.75 20.25 C-12.32685706 24.98057118 -14.02958429 26.1516583 -18 29 C-18.33 28.01 -18.66 27.02 -19 26 C-17.1875 22.8125 -17.1875 22.8125 -15 20 C-14.34 20 -13.68 20 -13 20 C-12.773125 19.34 -12.54625 18.68 -12.3125 18 C-10.6121185 14.11341372 -8.60376916 10.36320183 -6 7 C-5.34 7 -4.68 7 -4 7 C-3.71125 6.21625 -3.4225 5.4325 -3.125 4.625 C-2 2 -2 2 0 0 Z " fill="#5F9AEC" transform="translate(248,237)"/>
<path d="M0 0 C0.33 0.99 0.66 1.98 1 3 C0.34 3 -0.32 3 -1 3 C-1.433125 3.8971875 -1.433125 3.8971875 -1.875 4.8125 C-3.58020108 8.12816877 -5.7533775 11.03854306 -8 14 C-7.67 14.66 -7.34 15.32 -7 16 C-7.928125 16.103125 -8.85625 16.20625 -9.8125 16.3125 C-13.03254358 17.0070192 -14.02579865 17.47740939 -16 20 C-14.86726461 15.55619192 -13.71682385 11.73563279 -11 8 C-10.34 8 -9.68 8 -9 8 C-9 7.01 -9 6.02 -9 5 C-8.34 5 -7.68 5 -7 5 C-7 4.34 -7 3.68 -7 3 C-6.01 3 -5.02 3 -4 3 C-4 2.34 -4 1.68 -4 1 C-2.68 0.67 -1.36 0.34 0 0 Z " fill="#1C53BB" transform="translate(283,271)"/>
<path d="M0 0 C0 0.33 0 0.66 0 1 C-0.68707031 1.18175781 -1.37414062 1.36351562 -2.08203125 1.55078125 C-3.43361328 1.92783203 -3.43361328 1.92783203 -4.8125 2.3125 C-5.70582031 2.55613281 -6.59914062 2.79976562 -7.51953125 3.05078125 C-10.08940124 4.03421181 -11.13819206 5.05159634 -13 7 C-15.6875 7.1875 -15.6875 7.1875 -18 7 C-18.66 8.98 -19.32 10.96 -20 13 C-20.66 13 -21.32 13 -22 13 C-22.17015625 13.68707031 -22.3403125 14.37414062 -22.515625 15.08203125 C-22.75796875 15.98308594 -23.0003125 16.88414062 -23.25 17.8125 C-23.48203125 18.70582031 -23.7140625 19.59914062 -23.953125 20.51953125 C-25.15888432 23.37646099 -26.40101703 24.38369034 -29 26 C-28.84176499 18.87942468 -25.32702752 13.52620374 -21 8 C-20.34 8 -19.68 8 -19 8 C-19 7.34 -19 6.68 -19 6 C-16.8828125 4.52734375 -16.8828125 4.52734375 -14.125 2.9375 C-13.22007812 2.41027344 -12.31515625 1.88304687 -11.3828125 1.33984375 C-7.02646956 -1.10970646 -4.99168945 -0.83194824 0 0 Z " fill="#5F96E8" transform="translate(151,168)"/>
<path d="M0 0 C0.33 0 0.66 0 1 0 C1 1.98 1 3.96 1 6 C1.99 6.33 2.98 6.66 4 7 C3.835 7.928125 3.67 8.85625 3.5 9.8125 C2.92251612 12.95621353 2.92251612 12.95621353 3 16 C2.34 16.33 1.68 16.66 1 17 C0.7525 18.2375 0.7525 18.2375 0.5 19.5 C0.2525 20.7375 0.2525 20.7375 0 22 C-0.66 22.33 -1.32 22.66 -2 23 C-2.90343684 24.88263881 -2.90343684 24.88263881 -3.625 27.0625 C-3.88539062 27.79597656 -4.14578125 28.52945312 -4.4140625 29.28515625 C-4.60742188 29.85105469 -4.80078125 30.41695313 -5 31 C-6.5198254 27.96034919 -5.48555883 25.74854147 -4.78515625 22.4609375 C-4.65056503 21.82008209 -4.51597382 21.17922668 -4.37730408 20.51895142 C-3.94537074 18.46956656 -3.50405758 16.42233054 -3.0625 14.375 C-2.76826092 12.98711032 -2.47463335 11.59909083 -2.18164062 10.2109375 C-1.46152052 6.80575624 -0.73297421 3.40244037 0 0 Z " fill="#265BC5" transform="translate(100,288)"/>
<path d="M0 0 C0.99 0.33 1.98 0.66 3 1 C3 1.99 3 2.98 3 4 C3.66 3.67 4.32 3.34 5 3 C7.6723621 2.86584528 10.32250488 2.95681459 13 3 C12.67 3.66 12.34 4.32 12 5 C10.68 4.67 9.36 4.34 8 4 C8.33 4.99 8.66 5.98 9 7 C8.0625 9.1875 8.0625 9.1875 7 11 C7.66 11.66 8.32 12.32 9 13 C9.39764263 14.98821313 9.73775349 16.98944339 10 19 C8.1875 18.875 8.1875 18.875 6 18 C3 12.96428571 3 12.96428571 3 10 C2.34 9.67 1.68 9.34 1 9 C-0.1875 5.5625 -0.1875 5.5625 -1 2 C-0.67 1.34 -0.34 0.68 0 0 Z " fill="#336BD0" transform="translate(191,290)"/>
<path d="M0 0 C-0.33 2.64 -0.66 5.28 -1 8 C-1.66 8 -2.32 8 -3 8 C-3 8.99 -3 9.98 -3 11 C-3.99 11.495 -3.99 11.495 -5 12 C-5.65555119 14.52733235 -5.65555119 14.52733235 -6 17 C-7.65 17 -9.3 17 -11 17 C-11.39195262 12.04252525 -10.5776743 9.65854564 -7.625 5.6875 C-6.68527344 4.39392578 -6.68527344 4.39392578 -5.7265625 3.07421875 C-3.81301321 0.77536202 -2.9979113 0 0 0 Z " fill="#3B64B2" transform="translate(296,250)"/>
<path d="M0 0 C0 4.05571655 -1.62868633 5.84201149 -3.875 9.1875 C-4.59429687 10.27417969 -5.31359375 11.36085937 -6.0546875 12.48046875 C-7.01761719 13.72763672 -7.01761719 13.72763672 -8 15 C-8.66 15 -9.32 15 -10 15 C-10.2475 15.721875 -10.495 16.44375 -10.75 17.1875 C-12.10983674 20.24713266 -13.82917754 22.4673738 -16 25 C-16 23.35 -16 21.7 -16 20 C-15.34 20 -14.68 20 -14 20 C-14.33 18.02 -14.66 16.04 -15 14 C-14.34 13.67 -13.68 13.34 -13 13 C-12.34 13.33 -11.68 13.66 -11 14 C-11.33 12.35 -11.66 10.7 -12 9 C-11.34 8.67 -10.68 8.34 -10 8 C-10 8.66 -10 9.32 -10 10 C-9.01 10 -8.02 10 -7 10 C-7.33 8.35 -7.66 6.7 -8 5 C-6.68 5.33 -5.36 5.66 -4 6 C-3.896875 5.38125 -3.79375 4.7625 -3.6875 4.125 C-3 2 -3 2 0 0 Z " fill="#4E9CF0" transform="translate(305,217)"/>
<path d="M0 0 C0.33 0.66 0.66 1.32 1 2 C1.66 2 2.32 2 3 2 C3.33 4.31 3.66 6.62 4 9 C3.34 9 2.68 9 2 9 C2 10.32 2 11.64 2 13 C-4.75 13.125 -4.75 13.125 -7 12 C-6.34 10.35 -5.68 8.7 -5 7 C-4.34 7 -3.68 7 -3 7 C-3 6.34 -3 5.68 -3 5 C-2.34 4.67 -1.68 4.34 -1 4 C-0.34786708 1.97536745 -0.34786708 1.97536745 0 0 Z " fill="#2089F5" transform="translate(312,224)"/>
<path d="M0 0 C0.99 0.33 1.98 0.66 3 1 C2.71512349 3.04262517 2.42177949 5.08407027 2.125 7.125 C1.96257812 8.26195312 1.80015625 9.39890625 1.6328125 10.5703125 C1.02568583 13.86078915 0.13654367 16.85779103 -1 20 C-2.13199353 19.0919838 -3.25532363 18.17316174 -4.375 17.25 C-5.00148438 16.73953125 -5.62796875 16.2290625 -6.2734375 15.703125 C-8.08312318 13.91800519 -9.00117455 12.32050356 -10 10 C-10.66 10 -11.32 10 -12 10 C-12.33 9.01 -12.66 8.02 -13 7 C-12.34 7 -11.68 7 -11 7 C-11 7.66 -11 8.32 -11 9 C-9.68 9.33 -8.36 9.66 -7 10 C-6.67 11.32 -6.34 12.64 -6 14 C-5.01 14 -4.02 14 -3 14 C-1.23384882 9.29026351 -0.51405169 4.96916636 0 0 Z " fill="#53ADF0" transform="translate(357,161)"/>
<path d="M0 0 C0.33 1.32 0.66 2.64 1 4 C0.34 4 -0.32 4 -1 4 C-1 4.99 -1 5.98 -1 7 C-2.7578125 7.94401042 -4.515625 8.88802083 -6.2734375 9.83203125 C-8.30502365 11.04763493 -8.30502365 11.04763493 -10 14 C-17.01718799 17.61792695 -23.23269159 19.97990214 -31 18 C-31 17.67 -31 17.34 -31 17 C-30.24976563 16.84144531 -29.49953125 16.68289063 -28.7265625 16.51953125 C-21.5340505 14.87992839 -15.451256 12.54117857 -9 9 C-7.66941196 8.32787077 -6.33695964 7.65936419 -5 7 C-5 6.34 -5 5.68 -5 5 C-3.37446717 3.29319053 -1.70884005 1.62339805 0 0 Z " fill="#5596EC" transform="translate(372,308)"/>
<path d="M0 0 C3.35416957 -0.37470002 4.7716592 -0.14333802 7.67578125 1.6796875 C8.98095703 2.76636719 8.98095703 2.76636719 10.3125 3.875 C11.19550781 4.59429687 12.07851563 5.31359375 12.98828125 6.0546875 C13.98408203 7.01761719 13.98408203 7.01761719 15 8 C15 8.66 15 9.32 15 10 C15.66 10 16.32 10 17 10 C16.67 11.98 16.34 13.96 16 16 C13.525 15.01 13.525 15.01 11 14 C11 12.35 11 10.7 11 9 C9.2984375 8.4121875 9.2984375 8.4121875 7.5625 7.8125 C4 6 4 6 3.0625 3.3125 C3.041875 2.549375 3.02125 1.78625 3 1 C2.01 0.67 1.02 0.34 0 0 Z " fill="#51CDF3" transform="translate(381,208)"/>
<path d="M0 0 C6.74719005 6.74719005 6.2331963 20.31722153 6.27685547 29.13525391 C6.2377807 34.7584689 6.15403957 40.3787406 6 46 C5.67 46 5.34 46 5 46 C5 38.41 5 30.82 5 23 C4.34 23 3.68 23 3 23 C2.96261719 22.34773438 2.92523438 21.69546875 2.88671875 21.0234375 C2.48506238 15.68377043 1.83238391 11.6795908 -1 7 C-0.34 7 0.32 7 1 7 C0.67 4.69 0.34 2.38 0 0 Z " fill="#5CB1ED" transform="translate(414,246)"/>
<path d="M0 0 C0.99 0.33 1.98 0.66 3 1 C2.855625 1.70125 2.71125 2.4025 2.5625 3.125 C2.376875 4.07375 2.19125 5.0225 2 6 C1.79375 6.99 1.5875 7.98 1.375 9 C0.83772765 11.94170261 0.83772765 11.94170261 1.5625 14.5625 C2.12393932 17.69051906 1.49663861 19.23121857 0 22 C-0.99 22.66 -1.98 23.32 -3 24 C-4.43550181 18.4205024 -3.40512363 14.07370562 -2.0625 8.625 C-1.76956055 7.37783203 -1.76956055 7.37783203 -1.47070312 6.10546875 C-0.99058678 4.06790182 -0.49667446 2.03359415 0 0 Z " fill="#2457C0" transform="translate(116,217)"/>
<path d="M0 0 C1.53253338 3.06506676 0.56935729 5.48714712 -0.1953125 8.734375 C-1.37216477 12.04784256 -3.25697367 13.87415459 -6 16 C-6.66 16 -7.32 16 -8 16 C-8 16.66 -8 17.32 -8 18 C-9.65 18.66 -11.3 19.32 -13 20 C-11.40013936 15.03657693 -8.47460168 11.29801238 -5.375 7.1875 C-4.6015625 6.14819336 -4.6015625 6.14819336 -3.8125 5.08789062 C-2.54657074 3.38826337 -1.27394735 1.69362565 0 0 Z " fill="#2C84EE" transform="translate(262,217)"/>
<path d="M0 0 C0.33 0 0.66 0 1 0 C1.44117121 6.17639698 0.59943208 11.5331992 -0.875 17.5 C-1.04870117 18.21865234 -1.22240234 18.93730469 -1.40136719 19.67773438 C-1.86556206 21.47101958 -2.42555616 23.2389313 -3 25 C-3.66 25.33 -4.32 25.66 -5 26 C-5.02725341 24.2709226 -5.04650987 22.54171824 -5.0625 20.8125 C-5.07410156 19.84957031 -5.08570313 18.88664062 -5.09765625 17.89453125 C-5.00486622 15.14423487 -4.62111685 12.67520409 -4 10 C-4.66 9.67 -5.32 9.34 -6 9 C-6 8.34 -6 7.68 -6 7 C-3.525 7.495 -3.525 7.495 -1 8 C-1.020625 7.05125 -1.04125 6.1025 -1.0625 5.125 C-1 2 -1 2 0 0 Z " fill="#1445A1" transform="translate(158,231)"/>
<path d="M0 0 C0.66 0 1.32 0 2 0 C2 0.66 2 1.32 2 2 C2.99 1.67 3.98 1.34 5 1 C7 6.75 7 6.75 7 9 C7.99 9 8.98 9 10 9 C10.103125 9.639375 10.20625 10.27875 10.3125 10.9375 C10.539375 11.618125 10.76625 12.29875 11 13 C11.99 13.33 12.98 13.66 14 14 C14.33 14.66 14.66 15.32 15 16 C15.99 16.33 16.98 16.66 18 17 C18.33 18.98 18.66 20.96 19 23 C10.90565125 16.42334164 4.20994575 9.64779234 0 0 Z " fill="#5891E9" transform="translate(263,319)"/>
<path d="M0 0 C0.33 1.32 0.66 2.64 1 4 C0.34 4 -0.32 4 -1 4 C-1 5.98 -1 7.96 -1 10 C-1.99 10 -2.98 10 -4 10 C-4.09978121 13.49234244 -3.77842938 16.59437148 -3 20 C-4.875 20.625 -4.875 20.625 -7 21 C-9 19 -9 19 -9.40625 16.3046875 C-8.88663973 12.07785782 -6.99461543 9.43617123 -4.5 6.125 C-4.07074219 5.53203125 -3.64148438 4.9390625 -3.19921875 4.328125 C-2.1453999 2.87619681 -1.07438484 1.43677655 0 0 Z " fill="#2891F9" transform="translate(283,186)"/>
<path d="M0 0 C-3.75 3 -3.75 3 -6 3 C-6.33 3.99 -6.66 4.98 -7 6 C-8.051875 6.103125 -9.10375 6.20625 -10.1875 6.3125 C-13.93131977 6.73719256 -13.93131977 6.73719256 -16.4375 8.5625 C-20.09534658 10.61446272 -22.8443279 10.21130536 -27 10 C-22.56110436 6.40740087 -17.67205592 4.74351567 -12.375 2.75 C-11.40820312 2.37359375 -10.44140625 1.9971875 -9.4453125 1.609375 C-8.52234375 1.25875 -7.599375 0.908125 -6.6484375 0.546875 C-5.38265869 0.06492676 -5.38265869 0.06492676 -4.09130859 -0.42675781 C-2 -1 -2 -1 0 0 Z " fill="#5AB1EE" transform="translate(330,121)"/>
<path d="M0 0 C0.33 1.32 0.66 2.64 1 4 C0.34 4 -0.32 4 -1 4 C-1 4.99 -1 5.98 -1 7 C-0.34 7.33 0.32 7.66 1 8 C0.195625 8.28875 -0.60875 8.5775 -1.4375 8.875 C-4.1326468 9.73262568 -4.1326468 9.73262568 -5 12 C-5.66 12 -6.32 12 -7 12 C-6.67 13.98 -6.34 15.96 -6 18 C-6.99 18.33 -7.98 18.66 -9 19 C-9.66 19.99 -10.32 20.98 -11 22 C-11.66 20.68 -12.32 19.36 -13 18 C-11.39642346 15.74957738 -9.79216064 13.49964941 -8.1875 11.25 C-7.73568359 10.61578125 -7.28386719 9.9815625 -6.81835938 9.328125 C-4.58023369 6.19148171 -2.33201302 3.06803042 0 0 Z " fill="#5CADEE" transform="translate(308,151)"/>
<path d="M0 0 C0.33 0 0.66 0 1 0 C1 2.64 1 5.28 1 8 C2.0209375 7.505 2.0209375 7.505 3.0625 7 C6.50840238 5.82692685 9.38397422 5.85819507 13 6 C13.33 6.66 13.66 7.32 14 8 C12.80375 8.28875 11.6075 8.5775 10.375 8.875 C9.64796875 9.06320313 8.9209375 9.25140625 8.171875 9.4453125 C6.33153092 9.91532843 4.47918536 10.33795881 2.625 10.75 C-0.31859101 11.80110607 -0.31859101 11.80110607 -1.375 15.125 C-1.58125 16.07375 -1.7875 17.0225 -2 18 C-3.51553092 14.02549507 -2.49888623 10.79518851 -1.5625 6.75 C-1.27503906 5.48671875 -0.98757812 4.2234375 -0.69140625 2.921875 C-0.46324219 1.95765625 -0.23507813 0.9934375 0 0 Z " fill="#4482E5" transform="translate(121,194)"/>
<path d="M0 0 C7.875 0.875 7.875 0.875 9 2 C10.51928038 2.07179964 12.04167482 2.08392007 13.5625 2.0625 C14.38878906 2.05347656 15.21507812 2.04445313 16.06640625 2.03515625 C17.02353516 2.01775391 17.02353516 2.01775391 18 2 C18.33 2.66 18.66 3.32 19 4 C21.11846285 4.68729254 21.11846285 4.68729254 23.5625 5.125 C24.38878906 5.29257812 25.21507812 5.46015625 26.06640625 5.6328125 C26.70449219 5.75398438 27.34257812 5.87515625 28 6 C23.77776712 8.81482192 21.26247074 7.73977149 16.4296875 6.84765625 C10.74274738 5.4421141 5.38758774 3.2766903 0 1 C0 0.67 0 0.34 0 0 Z " fill="#3A7FE7" transform="translate(301,354)"/>
<path d="M0 0 C4.91058778 4.36496691 8.40781727 9.193111 9.4375 15.8125 C8.91531805 18.42340974 8.0618658 19.36768958 6 21 C5.34 20.67 4.68 20.34 4 20 C4.33 19.34 4.66 18.68 5 18 C4.75213734 15.783481 4.42916475 13.57498848 4.0625 11.375 C3.77052734 9.59222656 3.77052734 9.59222656 3.47265625 7.7734375 C3.23869141 6.40058594 3.23869141 6.40058594 3 5 C2.34 5 1.68 5 1 5 C0.67 3.35 0.34 1.7 0 0 Z " fill="#2F54AA" transform="translate(220,249)"/>
<path d="M0 0 C1.32 0 2.64 0 4 0 C3.42676569 3.86933162 1.61046448 6.15222057 -1 9 C-1.66 9 -2.32 9 -3 9 C-3 9.66 -3 10.32 -3 11 C-5.5 12.625 -5.5 12.625 -8 14 C-8.8125 12.3125 -8.8125 12.3125 -9 10 C-6.75 7.25 -6.75 7.25 -4 5 C-3.01 5 -2.02 5 -1 5 C-0.67 3.35 -0.34 1.7 0 0 Z " fill="#448FEE" transform="translate(399,329)"/>
<path d="M0 0 C0.78375 0.495 1.5675 0.99 2.375 1.5 C-0.71309695 3.26462683 -1.85812136 3.5 -5.625 3.5 C-6.285 2.51 -6.945 1.52 -7.625 0.5 C-10.56573282 1.13015703 -12.95938825 2.12420038 -15.625 3.5 C-16.615 3.83 -17.605 4.16 -18.625 4.5 C-18.955 3.51 -19.285 2.52 -19.625 1.5 C-13.28174038 -2.50626924 -6.85836074 -2.83794238 0 0 Z " fill="#093796" transform="translate(140.625,204.5)"/>
<path d="M0 0 C0.66 0.33 1.32 0.66 2 1 C0.8125 3 0.8125 3 -1 5 C-3.6875 5.25 -3.6875 5.25 -6 5 C-6 5.99 -6 6.98 -6 8 C-4.68 8 -3.36 8 -2 8 C-1.67 8.99 -1.34 9.98 -1 11 C-2.6498275 10.57781184 -4.29483665 10.13675575 -5.9375 9.6875 C-6.85402344 9.44386719 -7.77054687 9.20023438 -8.71484375 8.94921875 C-9.84599609 8.47935547 -9.84599609 8.47935547 -11 8 C-11.33 7.01 -11.66 6.02 -12 5 C-10.04578965 4.13644222 -8.08648653 3.28440066 -6.125 2.4375 C-5.03445313 1.96183594 -3.94390625 1.48617187 -2.8203125 0.99609375 C-1.88960938 0.66738281 -0.95890625 0.33867187 0 0 Z " fill="#5BA8EB" transform="translate(301,131)"/>
<path d="M0 0 C2 2 2 2 2.46875 4.10546875 C1.74068142 8.60129225 -0.85845548 11.68118757 -3.5 15.3125 C-4.02464844 16.05306641 -4.54929687 16.79363281 -5.08984375 17.55664062 C-6.38298548 19.37879488 -7.68641799 21.19255435 -9 23 C-9.66 21.68 -10.32 20.36 -11 19 C-10.01 18.67 -9.02 18.34 -8 18 C-7.26676204 15.98491642 -7.26676204 15.98491642 -7 14 C-6.34 14 -5.68 14 -5 14 C-5 13.01 -5 12.02 -5 11 C-4.34 11 -3.68 11 -3 11 C-3.33 10.01 -3.66 9.02 -4 8 C-2 6 -2 6 0 5 C-0.33 4.01 -0.66 3.02 -1 2 C-0.67 1.34 -0.34 0.68 0 0 Z " fill="#4CA6F4" transform="translate(316,194)"/>
<path d="M0 0 C1.32 0.33 2.64 0.66 4 1 C4 1.99 4 2.98 4 4 C4.66 4 5.32 4 6 4 C6.26554688 4.63808594 6.53109375 5.27617187 6.8046875 5.93359375 C7.15789062 6.75988281 7.51109375 7.58617187 7.875 8.4375 C8.39707031 9.67306641 8.39707031 9.67306641 8.9296875 10.93359375 C9.8244937 13.15746715 9.8244937 13.15746715 12 14 C12 14.99 12 15.98 12 17 C12.66 17.33 13.32 17.66 14 18 C13.34 18.99 12.68 19.98 12 21 C9.21812731 16.5817316 6.46222554 12.14891448 3.75 7.6875 C3.24984375 6.86636719 2.7496875 6.04523438 2.234375 5.19921875 C1 3 1 3 0 0 Z " fill="#2871E7" transform="translate(146,207)"/>
<path d="M0 0 C1.65 0.33 3.3 0.66 5 1 C4.49701212 5.40114397 2.91227269 7.71195019 0 11 C0.33 9.35 0.66 7.7 1 6 C0.34 6 -0.32 6 -1 6 C-1 7.32 -1 8.64 -1 10 C-1.66 10 -2.32 10 -3 10 C-3.33 7.69 -3.66 5.38 -4 3 C-2.68 2.67 -1.36 2.34 0 2 C0 1.34 0 0.68 0 0 Z " fill="#2661C9" transform="translate(220,330)"/>
<path d="M0 0 C3.465 1.485 3.465 1.485 7 3 C6.01 3.495 6.01 3.495 5 4 C5.309375 5.27875 5.61875 6.5575 5.9375 7.875 C6.11152344 8.59429687 6.28554687 9.31359375 6.46484375 10.0546875 C6.94846992 12.0585657 6.94846992 12.0585657 8 14 C7.01 15.485 7.01 15.485 6 17 C5.16180842 15.37750059 4.3295884 13.75191503 3.5 12.125 C3.0359375 11.22007812 2.571875 10.31515625 2.09375 9.3828125 C1 7 1 7 1 5 C0.34 5 -0.32 5 -1 5 C-0.67 3.35 -0.34 1.7 0 0 Z " fill="#4A83E2" transform="translate(160,230)"/>
<path d="M0 0 C1.65 0.33 3.3 0.66 5 1 C4.67 1.99 4.34 2.98 4 4 C3.34 4 2.68 4 2 4 C1.773125 4.680625 1.54625 5.36125 1.3125 6.0625 C-0.32410945 9.72538782 -2.44289112 12.9083039 -5 16 C-5.33 16 -5.66 16 -6 16 C-6.1875 13.6875 -6.1875 13.6875 -6 11 C-5.02246356 9.97803008 -4.0194119 8.98020375 -3 8 C-2.27306096 6.02111039 -1.60183749 4.02045442 -1 2 C-0.67 1.34 -0.34 0.68 0 0 Z " fill="#4E83DC" transform="translate(243,300)"/>
<path d="M0 0 C3.10671743 0.78626799 6.0906958 1.6441041 9 3 C10.4375 5.5625 10.4375 5.5625 11 8 C11.66 8.66 12.32 9.32 13 10 C13.40047444 12.32275177 13.7397104 14.65739357 14 17 C13.484375 16.34 12.96875 15.68 12.4375 15 C9.92989017 11.91371097 7.32538578 8.93612432 4.68359375 5.96484375 C3.03019814 4.03524284 1.50151042 2.04917379 0 0 Z " fill="#74C8EF" transform="translate(364,240)"/>
<path d="M0 0 C0.99 0.99 1.98 1.98 3 3 C2.01 4.485 2.01 4.485 1 6 C0.60986284 7.9896995 0.26797351 9.99019869 0 12 C-0.99 12.33 -1.98 12.66 -3 13 C-3.66 12.67 -4.32 12.34 -5 12 C-4.67 9.03 -4.34 6.06 -4 3 C-3.67 3.66 -3.34 4.32 -3 5 C-2.34 5 -1.68 5 -1 5 C-0.67 3.35 -0.34 1.7 0 0 Z " fill="#265CCA" transform="translate(108,267)"/>
<path d="M0 0 C-0.51482919 5.852795 -1.45357192 11.3297637 -3 17 C-3.33 17 -3.66 17 -4 17 C-3.67 12.38 -3.34 7.76 -3 3 C-5.31 3.33 -7.62 3.66 -10 4 C-6.74659338 1.32755885 -4.23938937 0 0 0 Z " fill="#80CEED" transform="translate(372,103)"/>
<path d="M0 0 C1.28488954 2.14850383 2.03605301 3.48169093 1.85986328 6.01464844 C1.68181152 6.7059082 1.50375977 7.39716797 1.3203125 8.109375 C1.13339844 8.86347656 0.94648438 9.61757813 0.75390625 10.39453125 C0.54636719 11.17183594 0.33882812 11.94914062 0.125 12.75 C-0.07480469 13.54277344 -0.27460938 14.33554687 -0.48046875 15.15234375 C-0.97445701 17.10477355 -1.48557931 19.05285391 -2 21 C-4.37783838 18.62216162 -4.59009208 17.27926335 -5 14 C-4.67 13.34 -4.34 12.68 -4 12 C-3.34 12 -2.68 12 -2 12 C-1.93941406 11.21753906 -1.87882813 10.43507813 -1.81640625 9.62890625 C-1.73261719 8.61699219 -1.64882812 7.60507812 -1.5625 6.5625 C-1.48128906 5.55316406 -1.40007812 4.54382813 -1.31640625 3.50390625 C-1 1 -1 1 0 0 Z " fill="#446CBB" transform="translate(138,317)"/>
<path d="M0 0 C0.99 0 1.98 0 3 0 C1.67997942 3.57294032 0.10478612 6.63953492 -2 9.8125 C-2.515625 10.60269531 -3.03125 11.39289063 -3.5625 12.20703125 C-4.036875 12.79871094 -4.51125 13.39039063 -5 14 C-5.66 14 -6.32 14 -7 14 C-7 12.02 -7 10.04 -7 8 C-6.34 7.67 -5.68 7.34 -5 7 C-5 6.34 -5 5.68 -5 5 C-3.68 5 -2.36 5 -1 5 C-0.67 3.35 -0.34 1.7 0 0 Z " fill="#5698E8" transform="translate(279,251)"/>
<path d="M0 0 C-0.63723011 3.47290409 -2.02437217 5.84354753 -4 8.75 C-4.804375 9.94882812 -4.804375 9.94882812 -5.625 11.171875 C-6.07875 11.77515625 -6.5325 12.3784375 -7 13 C-7.33 13 -7.66 13 -8 13 C-8 11.02 -8 9.04 -8 7 C-7.34 7 -6.68 7 -6 7 C-6 5.02 -6 3.04 -6 1 C-3.92446352 0.4465236 -2.15634036 0 0 0 Z " fill="#5A95ED" transform="translate(271,266)"/>
<path d="M0 0 C1.37344385 4.39844322 0.24307502 7.92504555 -0.9375 12.25 C-1.23043945 13.36761719 -1.23043945 13.36761719 -1.52929688 14.5078125 C-2.01104198 16.34079386 -2.50439225 18.17071818 -3 20 C-3.33 20 -3.66 20 -4 20 C-4.33 17.69 -4.66 15.38 -5 13 C-4.01 12.67 -3.02 12.34 -2 12 C-2.99 9.36 -3.98 6.72 -5 4 C-3.68 3.67 -2.36 3.34 -1 3 C-0.67 2.01 -0.34 1.02 0 0 Z " fill="#4D71BE" transform="translate(134,339)"/>
<path d="M0 0 C0.66 1.32 1.32 2.64 2 4 C-1.3 8.62 -4.6 13.24 -8 18 C-8.33 16.68 -8.66 15.36 -9 14 C-8.34 14 -7.68 14 -7 14 C-7 13.34 -7 12.68 -7 12 C-6.34 12 -5.68 12 -5 12 C-4.67 9.36 -4.34 6.72 -4 4 C-2.68 4 -1.36 4 0 4 C0 2.68 0 1.36 0 0 Z " fill="#649AE7" transform="translate(260,278)"/>
<path d="M0 0 C2.69082872 0.17635452 5.32851446 0.61835921 8 1 C4.67149253 4.59478807 1.01028669 7.22364768 -3 10 C-3 8.68 -3 7.36 -3 6 C-2.34 6 -1.68 6 -1 6 C-1.0309375 4.7934375 -1.0309375 4.7934375 -1.0625 3.5625 C-1 1 -1 1 0 0 Z " fill="#458BE3" transform="translate(304,236)"/>
<path d="M0 0 C-1.75261672 3.09285304 -2.87360195 3.95138537 -6.25 5.25 C-9.94755531 5.98951106 -13.24098786 6.15342907 -17 6 C-13.96503913 3.49723606 -11.06804717 2.08387688 -7.375 0.75 C-6.41335938 0.39421875 -5.45171875 0.0384375 -4.4609375 -0.328125 C-2 -1 -2 -1 0 0 Z " fill="#5DBAF3" transform="translate(347,114)"/>
<path d="M0 0 C-0.66666667 3.33333333 -1.33333333 6.66666667 -2 10 C-3.65 10 -5.3 10 -7 10 C-7.3125 7.8125 -7.3125 7.8125 -7 5 C-2.77777778 0 -2.77777778 0 0 0 Z " fill="#0A44B0" transform="translate(292,257)"/>
<path d="M0 0 C0.33 0 0.66 0 1 0 C1.41694996 1.59880813 1.80790856 3.20441261 2.1875 4.8125 C2.40792969 5.70582031 2.62835938 6.59914063 2.85546875 7.51953125 C3 10 3 10 1.55078125 11.82421875 C0.78314453 12.40623047 0.78314453 12.40623047 0 13 C-0.66 12.67 -1.32 12.34 -2 12 C-2 13.65 -2 15.3 -2 17 C-2.66 17.33 -3.32 17.66 -4 18 C-3.52450066 15.37428665 -3.04477433 12.7494696 -2.5625 10.125 C-2.42779297 9.37863281 -2.29308594 8.63226563 -2.15429688 7.86328125 C-1.11328125 2.2265625 -1.11328125 2.2265625 0 0 Z " fill="#3E6BC7" transform="translate(109,251)"/>
<path d="M0 0 C2.78712092 1.39356046 3.26463329 3.16505673 4.625 5.9375 C5.07101563 6.83339844 5.51703125 7.72929687 5.9765625 8.65234375 C7 11 7 11 7 13 C5.68 12.67 4.36 12.34 3 12 C3 11.34 3 10.68 3 10 C2.01 9.67 1.02 9.34 0 9 C0 6.03 0 3.06 0 0 Z " fill="#3C7CE5" transform="translate(200,207)"/>
<path d="M0 0 C0.66 0 1.32 0 2 0 C1.835 1.093125 1.67 2.18625 1.5 3.3125 C0.93281816 6.87525873 0.93281816 6.87525873 1 10 C0.6937566 11.33981486 0.36548445 12.67511887 0 14 C-0.66 14 -1.32 14 -2 14 C-2 13.34 -2 12.68 -2 12 C-2.66 12 -3.32 12 -4 12 C-4 11.01 -4 10.02 -4 9 C-3.34 9 -2.68 9 -2 9 C-2.04125 8.071875 -2.0825 7.14375 -2.125 6.1875 C-2 3 -2 3 0 0 Z " fill="#319CF7" transform="translate(311,146)"/>
<path d="M0 0 C0.33 0.66 0.66 1.32 1 2 C2.65 2 4.3 2 6 2 C6 2.33 6 2.66 6 3 C-2.7419859 4.3213258 -11.137418 5.33165588 -20 5 C-20 4.67 -20 4.34 -20 4 C-18.83984375 3.81824219 -18.83984375 3.81824219 -17.65625 3.6328125 C-11.68117941 2.67147688 -5.84407421 1.57340459 0 0 Z " fill="#578DE4" transform="translate(353,358)"/>
<path d="M0 0 C0 3 0 3 0 3 Z M0 4 C0 4.66 0 5.32 0 6 C-1.32 6 -2.64 6 -4 6 C-4.33 7.32 -4.66 8.64 -5 10 C-6.98 10 -8.96 10 -11 10 C-9.36618755 6.55084038 -8.48225388 5.21652215 -4.9375 3.625 C-2 3 -2 3 0 4 Z " fill="#157CF7" transform="translate(364,318)"/>
<path d="M0 0 C2.74449566 5.05183855 1.47326895 8.60606451 0 14 C-0.90557961 16.72111361 -1.91695632 19.34162006 -3 22 C-4.30210009 19.39579982 -3.8132328 18.25729641 -3.22265625 15.4296875 C-2.94711914 14.08583984 -2.94711914 14.08583984 -2.66601562 12.71484375 C-2.46685547 11.77769531 -2.26769531 10.84054687 -2.0625 9.875 C-1.86720703 8.93011719 -1.67191406 7.98523438 -1.47070312 7.01171875 C-0.9864568 4.67316334 -0.49598428 2.33608912 0 0 Z " fill="#4E83C7" transform="translate(98,297)"/>
<path d="M0 0 C0.99 0.33 1.98 0.66 3 1 C1.99088542 2.72526042 0.98177083 4.45052083 -0.02734375 6.17578125 C-1.13901247 8.13819555 -1.13901247 8.13819555 -2 11 C-4.22189824 8.77810176 -4.92598892 6.91517292 -6 4 C-3.1875 1.9375 -3.1875 1.9375 0 0 Z " fill="#0A51D5" transform="translate(265,300)"/>
<path d="M0 0 C1.32 0.33 2.64 0.66 4 1 C4.12375 1.804375 4.2475 2.60875 4.375 3.4375 C4.684375 4.7059375 4.684375 4.7059375 5 6 C5.66 6.33 6.32 6.66 7 7 C7.625 9.0625 7.625 9.0625 8 11 C8.66 11 9.32 11 10 11 C9.67 12.98 9.34 14.96 9 17 C6.25945632 13.67513619 4.57623951 10.16942114 2.8125 6.25 C2.28269531 5.07953125 1.75289062 3.9090625 1.20703125 2.703125 C0.80871094 1.81109375 0.41039062 0.9190625 0 0 Z " fill="#4B74C1" transform="translate(181,275)"/>
<path d="M0 0 C0.7578125 1.67578125 0.7578125 1.67578125 1 4 C-0.6953125 6.54296875 -0.6953125 6.54296875 -3.125 9.1875 C-3.91132813 10.06792969 -4.69765625 10.94835937 -5.5078125 11.85546875 C-8.13286304 14.11432885 -9.60127271 14.69157457 -13 15 C-11.8009428 11.4028284 -10.65406661 10.79141981 -7.625 8.625 C-4.20702249 6.06559236 -1.80495542 3.97090193 0 0 Z " fill="#1E5FD0" transform="translate(218,280)"/>
<path d="M0 0 C0.99 0 1.98 0 3 0 C3 1.65 3 3.3 3 5 C4.65 5 6.3 5 8 5 C8 5.66 8 6.32 8 7 C3.545 8.485 3.545 8.485 -1 10 C-1 9.01 -1 8.02 -1 7 C-0.34 7 0.32 7 1 7 C0.67 4.69 0.34 2.38 0 0 Z " fill="#4EA4F0" transform="translate(315,226)"/>
<path d="M0 0 C0.66 0 1.32 0 2 0 C2 0.66 2 1.32 2 2 C3.32 2.33 4.64 2.66 6 3 C6.33 4.32 6.66 5.64 7 7 C7.99 7 8.98 7 10 7 C10 7.66 10 8.32 10 9 C10.66 9 11.32 9 12 9 C12.33 8.34 12.66 7.68 13 7 C13 8.65 13 10.3 13 12 C10 12 10 12 8.17578125 10.5390625 C7.56089844 9.90742188 6.94601562 9.27578125 6.3125 8.625 C5.68988281 7.99851563 5.06726563 7.37203125 4.42578125 6.7265625 C3 5 3 5 3 3 C2.34 3 1.68 3 1 3 C0.67 2.01 0.34 1.02 0 0 Z " fill="#6FB4EB" transform="translate(344,168)"/>
<path d="M0 0 C1.09916562 3.29749685 0.89023727 4.54881363 0.22265625 7.88671875 C0.03896484 8.82451172 -0.14472656 9.76230469 -0.33398438 10.72851562 C-0.53314453 11.70498047 -0.73230469 12.68144531 -0.9375 13.6875 C-1.13279297 14.67556641 -1.32808594 15.66363281 -1.52929688 16.68164062 C-2.01275776 19.12252852 -2.50323966 21.56179009 -3 24 C-3.33 24 -3.66 24 -4 24 C-4.10477512 18.21408489 -3.99250545 12.70690634 -3 7 C-2.34 7 -1.68 7 -1 7 C-1.020625 6.030625 -1.04125 5.06125 -1.0625 4.0625 C-1 1 -1 1 0 0 Z " fill="#66BAED" transform="translate(364,137)"/>
<path d="M0 0 C0.25706972 5.91260345 -0.7017874 11.23918159 -2 17 C-2.33 17 -2.66 17 -3 17 C-3.06058594 16.32453125 -3.12117188 15.6490625 -3.18359375 14.953125 C-3.26738281 14.06109375 -3.35117187 13.1690625 -3.4375 12.25 C-3.51871094 11.36828125 -3.59992188 10.4865625 -3.68359375 9.578125 C-3.9307383 7.03610215 -3.9307383 7.03610215 -4.6171875 4.78125 C-4.74351562 4.1934375 -4.86984375 3.605625 -5 3 C-3.38441968 0.84589291 -2.74502455 0 0 0 Z " fill="#57C0F1" transform="translate(368,120)"/>
<path d="M0 0 C0.99 0 1.98 0 3 0 C3.47970123 1.74985354 3.95873924 3.49988891 4.4375 5.25 C4.83775391 6.71179688 4.83775391 6.71179688 5.24609375 8.203125 C5.49488281 9.12609375 5.74367188 10.0490625 6 11 C6.25910156 11.71671875 6.51820313 12.4334375 6.78515625 13.171875 C6.85605469 13.77515625 6.92695313 14.3784375 7 15 C5.5625 16.75 5.5625 16.75 4 18 C3.87882812 17.3709375 3.75765625 16.741875 3.6328125 16.09375 C2.57321984 10.68167674 1.38400102 5.33828966 0 0 Z " fill="#65BCF1" transform="translate(378,257)"/>
<path d="M0 0 C-1.44992269 4.10811428 -3.45407573 7.46855666 -6 11 C-6.33 11 -6.66 11 -7 11 C-7.34707158 5.70715835 -7.34707158 5.70715835 -7 3 C-4.57845435 0.32794963 -3.62378792 0 0 0 Z " fill="#52A9EF" transform="translate(338,170)"/>
<path d="M0 0 C0.53625 0.2475 1.0725 0.495 1.625 0.75 C0.635 1.245 0.635 1.245 -0.375 1.75 C-0.375 2.74 -0.375 3.73 -0.375 4.75 C-0.705 5.41 -1.035 6.07 -1.375 6.75 C-3.70833333 6.75 -6.04166667 6.75 -8.375 6.75 C-8.375 5.76 -8.375 4.77 -8.375 3.75 C-3.35945596 -0.35362694 -3.35945596 -0.35362694 0 0 Z " fill="#2AA5F8" transform="translate(332.375,120.25)"/>
<path d="M0 0 C1.65 0 3.3 0 5 0 C5 1.98 5 3.96 5 6 C5.66 6.33 6.32 6.66 7 7 C7.625 9.0625 7.625 9.0625 8 11 C7.34 11 6.68 11 6 11 C6 10.34 6 9.68 6 9 C5.38125 8.7525 4.7625 8.505 4.125 8.25 C1.60474173 6.76749514 0.98768341 5.71612936 0 3 C0 2.01 0 1.02 0 0 Z " fill="#3776E3" transform="translate(259,310)"/>
<path d="M0 0 C0.66 0 1.32 0 2 0 C2 0.99 2 1.98 2 3 C2.66 2.67 3.32 2.34 4 2 C6.6723621 1.86584528 9.32250488 1.95681459 12 2 C11.67 2.66 11.34 3.32 11 4 C9.68 3.67 8.36 3.34 7 3 C7.33 3.99 7.66 4.98 8 6 C7.34 6.66 6.68 7.32 6 8 C2.83884224 6.63016497 2.0072908 6.0109362 0 3 C0 2.01 0 1.02 0 0 Z " fill="#195CD5" transform="translate(192,291)"/>
<path d="M0 0 C-0.15481795 2.70931419 -0.48172081 4.46584039 -2.40234375 6.4453125 C-3.89771708 7.67679642 -5.4462924 8.8429837 -7 10 C-7.33 9.01 -7.66 8.02 -8 7 C-3.94 0 -3.94 0 0 0 Z " fill="#3F81E2" transform="translate(237,256)"/>
<path d="M0 0 C-4.455 3.465 -4.455 3.465 -9 7 C-9.66 6.67 -10.32 6.34 -11 6 C-11 5.34 -11 4.68 -11 4 C-10.34 4 -9.68 4 -9 4 C-8.67 2.68 -8.34 1.36 -8 0 C-4.63458162 -1.08174162 -3.70152678 -0.92538169 0 0 Z " fill="#4C91EC" transform="translate(391,344)"/>
<path d="M0 0 C3 1 3 1 5 4 C5.99 4 6.98 4 8 4 C8.33 4.99 8.66 5.98 9 7 C8.34 7.66 7.68 8.32 7 9 C6.34 8.34 5.68 7.68 5 7 C4.154375 6.71125 3.30875 6.4225 2.4375 6.125 C0 5 0 5 -0.875 2.9375 C-0.91625 2.298125 -0.9575 1.65875 -1 1 C-0.67 0.67 -0.34 0.34 0 0 Z " fill="#2962C9" transform="translate(208,324)"/>
<path d="M0 0 C1.32 0.33 2.64 0.66 4 1 C4 1.66 4 2.32 4 3 C4.66 3.33 5.32 3.66 6 4 C6.40729228 6.32156597 6.74438677 8.6568787 7 11 C5.109375 10.81640625 5.109375 10.81640625 3 10 C1.953125 7.71484375 1.953125 7.71484375 1.25 4.9375 C1.00765625 4.01839844 0.7653125 3.09929687 0.515625 2.15234375 C0.34546875 1.44207031 0.1753125 0.73179687 0 0 Z " fill="#28A8F8" transform="translate(375,247)"/>
<path d="M0 0 C2.3125 -0.1875 2.3125 -0.1875 5 0 C6 1 7 2 8 3 C11.10839021 3.7269226 11.10839021 3.7269226 14 4 C13.34 5.65 12.68 7.3 12 9 C11.34 8.01 10.68 7.02 10 6 C9.01 6.495 9.01 6.495 8 7 C8 6.34 8 5.68 8 5 C7.071875 4.7834375 7.071875 4.7834375 6.125 4.5625 C4 4 4 4 2 3 C2 2.34 2 1.68 2 1 C1.34 0.67 0.68 0.34 0 0 Z " fill="#2CB0F6" transform="translate(362,237)"/>
<path d="M0 0 C1 2 1 2 0.0625 5.125 C-0.288125 6.07375 -0.63875 7.0225 -1 8 C-1.99 8 -2.98 8 -4 8 C-4 9.65 -4 11.3 -4 13 C-4.99 13 -5.98 13 -7 13 C-7 13.66 -7 14.32 -7 15 C-7.99 15.33 -8.98 15.66 -10 16 C-8.55797524 11.84848662 -6.4989562 8.70021555 -3.875 5.1875 C-3.15054687 4.21167969 -2.42609375 3.23585937 -1.6796875 2.23046875 C-0.84824219 1.12638672 -0.84824219 1.12638672 0 0 Z " fill="#6DACEA" transform="translate(316,216)"/>
<path d="M0 0 C0 1.32 0 2.64 0 4 C-3.24388943 4.919102 -6.39351063 5.28279255 -9.75 5.5625 C-10.73484375 5.64628906 -11.7196875 5.73007813 -12.734375 5.81640625 C-13.48203125 5.87699219 -14.2296875 5.93757813 -15 6 C-12.29954818 4.19969878 -9.93322119 3.06622934 -6.9375 1.875 C-6.05964844 1.52179688 -5.18179687 1.16859375 -4.27734375 0.8046875 C-2 0 -2 0 0 0 Z " fill="#5DBFF0" transform="translate(362,107)"/>
<path d="M0 0 C1.65 0 3.3 0 5 0 C0.76486783 3.96189783 -3.547001 5.43181728 -9 7 C-8.67 5.68 -8.34 4.36 -8 3 C-7.34 3 -6.68 3 -6 3 C-6 2.34 -6 1.68 -6 1 C-4.35 1.33 -2.7 1.66 -1 2 C-0.67 1.34 -0.34 0.68 0 0 Z " fill="#5390ED" transform="translate(375,351)"/>
<path d="M0 0 C1.65 0 3.3 0 5 0 C3.48109469 4.55671592 1.04597738 8.31723292 -2 12 C-2.33 12 -2.66 12 -3 12 C-2.67 9.69 -2.34 7.38 -2 5 C-1.01 5 -0.02 5 1 5 C0.67 3.35 0.34 1.7 0 0 Z " fill="#5889D5" transform="translate(232,316)"/>
<path d="M0 0 C1.485 0.99 1.485 0.99 3 2 C5.15274948 1.69159401 5.15274948 1.69159401 7 1 C6.67 1.99 6.34 2.98 6 4 C5.92682927 6.10188008 5.92682927 6.10188008 6.5625 8.5 C7 11 7 11 6 13 C5.34 13 4.68 13 4 13 C3.67 10.36 3.34 7.72 3 5 C2.34 5 1.68 5 1 5 C0.67 3.35 0.34 1.7 0 0 Z " fill="#1850BA" transform="translate(177,262)"/>
<path d="M0 0 C0.66 0 1.32 0 2 0 C2.33 1.65 2.66 3.3 3 5 C2.360625 5.103125 1.72125 5.20625 1.0625 5.3125 C0.381875 5.539375 -0.29875 5.76625 -1 6 C-1.33 6.99 -1.66 7.98 -2 9 C-2.66 9 -3.32 9 -4 9 C-4 9.66 -4 10.32 -4 11 C-4.66 11 -5.32 11 -6 11 C-4.54997977 6.89160936 -2.6020866 3.49655387 0 0 Z " fill="#5778C0" transform="translate(283,263)"/>
<path d="M0 0 C2.97 0.495 2.97 0.495 6 1 C5.67 2.32 5.34 3.64 5 5 C3.68 5 2.36 5 1 5 C-2.11785113 5.64644661 -2.11785113 5.64644661 -3 8 C-3 6.35 -3 4.7 -3 3 C-2.01 2.67 -1.02 2.34 0 2 C0 1.34 0 0.68 0 0 Z " fill="#267BF3" transform="translate(240,251)"/>
<path d="M0 0 C6.11485027 -0.09706112 11.93303301 0.22959149 18 1 C18 1.33 18 1.66 18 2 C8.595 2.495 8.595 2.495 -1 3 C-0.67 2.01 -0.34 1.02 0 0 Z " fill="#69BEF2" transform="translate(324,229)"/>
<path d="M0 0 C0.33 1.32 0.66 2.64 1 4 C0.34 4 -0.32 4 -1 4 C-1 5.98 -1 7.96 -1 10 C-2.65 10.33 -4.3 10.66 -6 11 C-6.33 12.32 -6.66 13.64 -7 15 C-7.66 15 -8.32 15 -9 15 C-7.61219205 11.10993227 -5.7847773 8.03441292 -3.375 4.6875 C-2.74335938 3.80449219 -2.11171875 2.92148438 -1.4609375 2.01171875 C-0.97882813 1.34785156 -0.49671875 0.68398437 0 0 Z " fill="#71B7F1" transform="translate(283,186)"/>
<path d="M0 0 C0.33 1.32 0.66 2.64 1 4 C0.34 4 -0.32 4 -1 4 C-1 4.99 -1 5.98 -1 7 C-6.2734375 10.22265625 -6.2734375 10.22265625 -8 11 C-8.66 10.67 -9.32 10.34 -10 10 C-8.625 8.5 -8.625 8.5 -7 7 C-6.34 7 -5.68 7 -5 7 C-5 6.34 -5 5.68 -5 5 C-3.37446717 3.29319053 -1.70884005 1.62339805 0 0 Z " fill="#60A4ED" transform="translate(372,308)"/>
<path d="M0 0 C-1 3 -1 3 -4 5 C-4.33 5.99 -4.66 6.98 -5 8 C-6.32 7.67 -7.64 7.34 -9 7 C-8.67 5.35 -8.34 3.7 -8 2 C-2.25 0 -2.25 0 0 0 Z " fill="#2993F9" transform="translate(306,215)"/>
<path d="M0 0 C1.67004696 3.34009393 1.03063425 5.48371843 0 9 C-2.49099246 10.81306413 -5.11647434 11.94248831 -8 13 C-6.53181332 9.89257577 -4.79975 7.09528261 -2.875 4.25 C-2.33617187 3.45078125 -1.79734375 2.6515625 -1.2421875 1.828125 C-0.62730469 0.92320312 -0.62730469 0.92320312 0 0 Z " fill="#67BFEE" transform="translate(325,203)"/>
<path d="M0 0 C0.99 0.33 1.98 0.66 3 1 C3 1.99 3 2.98 3 4 C2.34 4 1.68 4 1 4 C0.67 5.65 0.34 7.3 0 9 C-1.65 9.33 -3.3 9.66 -5 10 C-4.67 8.68 -4.34 7.36 -4 6 C-3.34 6 -2.68 6 -2 6 C-1.34 4.02 -0.68 2.04 0 0 Z " fill="#2578F9" transform="translate(133,175)"/>
<path d="M0 0 C0 2.64 0 5.28 0 8 C-0.433125 7.505 -0.86625 7.01 -1.3125 6.5 C-2.99740483 4.66781808 -2.99740483 4.66781808 -6 5 C-6.99 4.67 -7.98 4.34 -9 4 C-8.34 3.67 -7.68 3.34 -7 3 C-7 2.34 -7 1.68 -7 1 C-2.25 0 -2.25 0 0 0 Z " fill="#2FB6F7" transform="translate(369,106)"/>
<path d="M0 0 C3.465 1.485 3.465 1.485 7 3 C7 3.33 7 3.66 7 4 C1.06 4.495 1.06 4.495 -5 5 C-5 4.01 -5 3.02 -5 2 C-5.66 1.67 -6.32 1.34 -7 1 C-5.5459375 1.0309375 -5.5459375 1.0309375 -4.0625 1.0625 C-1.12534105 1.35618499 -1.12534105 1.35618499 0 0 Z " fill="#1048B3" transform="translate(199,289)"/>
<path d="M0 0 C0.66 0.99 1.32 1.98 2 3 C2.66 3.33 3.32 3.66 4 4 C4.33 4.66 4.66 5.32 5 6 C3.6078125 6.1546875 3.6078125 6.1546875 2.1875 6.3125 C-1.03254358 7.0070192 -2.02579865 7.47740939 -4 10 C-2.99806563 6.20696275 -2.18975773 3.28463659 0 0 Z " fill="#2A5BBF" transform="translate(271,281)"/>
<path d="M0 0 C0.33 0.66 0.66 1.32 1 2 C0.00390625 4.3828125 0.00390625 4.3828125 -1.4375 7.125 C-1.91058594 8.03507813 -2.38367188 8.94515625 -2.87109375 9.8828125 C-3.24363281 10.58148438 -3.61617188 11.28015625 -4 12 C-5.32 11.67 -6.64 11.34 -8 11 C-5.36 7.37 -2.72 3.74 0 0 Z " fill="#65A3EA" transform="translate(262,217)"/>
<path d="M0 0 C2.64 0 5.28 0 8 0 C8 0.66 8 1.32 8 2 C9.8871875 1.690625 9.8871875 1.690625 11.8125 1.375 C15.4014758 0.78664331 15.75073878 0.83382585 19 3 C14.23420205 4.09367096 10.8441202 3.76635719 6.125 2.5625 C4.97257812 2.27503906 3.82015625 1.98757813 2.6328125 1.69140625 C1.76398438 1.46324219 0.89515625 1.23507812 0 1 C0 0.67 0 0.34 0 0 Z " fill="#5C95E8" transform="translate(310,358)"/>
<path d="M0 0 C1.32 0 2.64 0 4 0 C4 0.66 4 1.32 4 2 C4.66 2 5.32 2 6 2 C6 3.65 6 5.3 6 7 C5.01 7 4.02 7 3 7 C0.8125 4.5 0.8125 4.5 -1 2 C-0.67 1.34 -0.34 0.68 0 0 Z " fill="#116AFC" transform="translate(274,328)"/>
<path d="M0 0 C2.31 0.33 4.62 0.66 7 1 C7 1.99 7 2.98 7 4 C5.1875 5.0625 5.1875 5.0625 3 6 C2.01 5.67 1.02 5.34 0 5 C-0.33 4.01 -0.66 3.02 -1 2 C-0.67 1.34 -0.34 0.68 0 0 Z " fill="#1474F4" transform="translate(314,322)"/>
<path d="M0 0 C0.99 0.33 1.98 0.66 3 1 C2.17812739 5.38332057 1.09845718 9.67940177 0 14 C-0.66 13.67 -1.32 13.34 -2 13 C-1.85769192 11.58297487 -1.71099254 10.1663904 -1.5625 8.75 C-1.48128906 7.96109375 -1.40007812 7.1721875 -1.31640625 6.359375 C-1.02365007 4.17635361 -0.57935581 2.1226818 0 0 Z " fill="#4266B9" transform="translate(116,217)"/>
<path d="M0 0 C0 3.61137513 -0.92530082 4.74732191 -2.9375 7.6875 C-3.75541016 8.89986328 -3.75541016 8.89986328 -4.58984375 10.13671875 C-5.05519531 10.75160156 -5.52054687 11.36648437 -6 12 C-6.33 12 -6.66 12 -7 12 C-7.33 9.69 -7.66 7.38 -8 5 C-6.68 5.33 -5.36 5.66 -4 6 C-3.8453125 5.071875 -3.8453125 5.071875 -3.6875 4.125 C-3 2 -3 2 0 0 Z " fill="#79B7F1" transform="translate(305,217)"/>
<path d="M0 0 C1.87978657 2.73177617 2.01655381 3.88384275 1.5390625 7.234375 C1.23742187 8.39453125 0.93578125 9.5546875 0.625 10.75 C0.32851562 11.92046875 0.03203125 13.0909375 -0.2734375 14.296875 C-0.51320312 15.18890625 -0.75296875 16.0809375 -1 17 C-1.33 17 -1.66 17 -2 17 C-2 13.37 -2 9.74 -2 6 C-1.34 6 -0.68 6 0 6 C0 4.02 0 2.04 0 0 Z " fill="#4D72BA" transform="translate(145,287)"/>
<path d="M0 0 C1.32 0.33 2.64 0.66 4 1 C4.33 3.31 4.66 5.62 5 8 C5.66 8 6.32 8 7 8 C7 9.32 7 10.64 7 12 C7.66 12.33 8.32 12.66 9 13 C8.34 13.66 7.68 14.32 7 15 C6.01836578 13.06374902 5.03977546 11.12595461 4.0625 9.1875 C3.51722656 8.10855469 2.97195312 7.02960938 2.41015625 5.91796875 C1 3 1 3 0 0 Z " fill="#5888CF" transform="translate(173,259)"/>
<path d="M0 0 C1.9375 0.75 1.9375 0.75 4 2 C4.75 4.125 4.75 4.125 5 6 C2.69 5.67 0.38 5.34 -2 5 C-1.34 3.35 -0.68 1.7 0 0 Z " fill="#1674E5" transform="translate(307,231)"/>
<path d="M0 0 C2.97 0.495 2.97 0.495 6 1 C5.67 2.65 5.34 4.3 5 6 C3.68 6.33 2.36 6.66 1 7 C0 2.25 0 2.25 0 0 Z " fill="#1471F5" transform="translate(376,344)"/>
<path d="M0 0 C0.33 0.99 0.66 1.98 1 3 C1.99 2.01 2.98 1.02 4 0 C4.33 0.66 4.66 1.32 5 2 C2.82575883 4.50037734 1.26954202 5.43628586 -2 6 C-2 6.66 -2 7.32 -2 8 C-2.99 7.67 -3.98 7.34 -5 7 C-3.35 4.69 -1.7 2.38 0 0 Z " fill="#3D6CC5" transform="translate(267,287)"/>
<path d="M0 0 C0.99 0.66 1.98 1.32 3 2 C2.34 2.66 1.68 3.32 1 4 C0.83318891 7.08347826 0.83318891 7.08347826 1 10 C0.01 10.33 -0.98 10.66 -2 11 C-2.25 3.375 -2.25 3.375 0 0 Z " fill="#2877F4" transform="translate(124,191)"/>
<path d="M0 0 C2.97 0 5.94 0 9 0 C9 1.65 9 3.3 9 5 C4.89198233 3.81323934 3.10551666 3.10551666 0 0 Z " fill="#4885EC" transform="translate(292,349)"/>
<path d="M0 0 C1.41377341 2.63904371 2.37240135 5.07120629 3 8 C3.66 8 4.32 8 5 8 C5 9.98 5 11.96 5 14 C4.71125 13.360625 4.4225 12.72125 4.125 12.0625 C3.17176549 9.84793921 3.17176549 9.84793921 1 9 C-0.1875 5.5625 -0.1875 5.5625 -1 2 C-0.67 1.34 -0.34 0.68 0 0 Z " fill="#648BD6" transform="translate(191,290)"/>
<path d="M0 0 C2.0625 1.6875 2.0625 1.6875 4 4 C3.75 6.75 3.75 6.75 3 9 C2.01 9 1.02 9 0 9 C-0.66 8.01 -1.32 7.02 -2 6 C-1.34 6 -0.68 6 0 6 C0 4.02 0 2.04 0 0 Z " fill="#4476CF" transform="translate(102,279)"/>
<path d="M0 0 C1.32 0 2.64 0 4 0 C4 1.98 4 3.96 4 6 C3.34 6 2.68 6 2 6 C1.67 6.66 1.34 7.32 1 8 C0.34 8 -0.32 8 -1 8 C-0.67 5.36 -0.34 2.72 0 0 Z " fill="#2A7AED" transform="translate(259,274)"/>
<path d="M0 0 C0.96392528 2.99887865 1.35886391 5.08814875 0 8 C-2.5625 9.25 -2.5625 9.25 -5 10 C-3.84414715 6.08788267 -2.64465038 3.1254959 0 0 Z " fill="#4E8FE6" transform="translate(248,237)"/>
<path d="M0 0 C2.97 0.495 2.97 0.495 6 1 C5.67 1.99 5.34 2.98 5 4 C6.32 3.67 7.64 3.34 9 3 C9 4.98 9 6.96 9 9 C8.67 8.34 8.34 7.68 8 7 C7.01 7 6.02 7 5 7 C4.67 5.68 4.34 4.36 4 3 C2.68 2.67 1.36 2.34 0 2 C0 1.34 0 0.68 0 0 Z " fill="#2598F7" transform="translate(346,168)"/>
<path d="M0 0 C1.32 0 2.64 0 4 0 C3.625 1.9375 3.625 1.9375 3 4 C2.01 4.495 2.01 4.495 1 5 C0.01 6.485 0.01 6.485 -1 8 C-1.66 6.68 -2.32 5.36 -3 4 C-1.75 2 -1.75 2 0 0 Z " fill="#51AAF5" transform="translate(298,165)"/>
<path d="M0 0 C1.32 0 2.64 0 4 0 C4 0.99 4 1.98 4 3 C4.66 3.33 5.32 3.66 6 4 C5.34 4 4.68 4 4 4 C4 4.66 4 5.32 4 6 C4.66 6.33 5.32 6.66 6 7 C4.68 7 3.36 7 2 7 C2 6.01 2 5.02 2 4 C1.34 4 0.68 4 0 4 C0 2.68 0 1.36 0 0 Z " fill="#1C59C9" transform="translate(202,312)"/>
<path d="M0 0 C1 3 1 3 1 7 C-2.75 8.125 -2.75 8.125 -5 7 C-3.88820837 3.66462511 -2.52588702 2.36292656 0 0 Z " fill="#206DE5" transform="translate(247,294)"/>
<path d="M0 0 C0.66 0 1.32 0 2 0 C1.54300722 5.02692063 -0.99241748 8.14896261 -4 12 C-4.66 10.68 -5.32 9.36 -6 8 C-5.01 7.67 -4.02 7.34 -3 7 C-2.26676204 4.98491642 -2.26676204 4.98491642 -2 3 C-1.34 3 -0.68 3 0 3 C0 2.01 0 1.02 0 0 Z " fill="#64B0F0" transform="translate(311,205)"/>
<path d="M0 0 C0.33 0 0.66 0 1 0 C1.25 7.625 1.25 7.625 -1 11 C-1.99 11 -2.98 11 -4 11 C-2.95902388 7.13351728 -1.96301592 3.50538557 0 0 Z " fill="#2FAAF0" transform="translate(364,129)"/>
<path d="M0 0 C0.66 0.66 1.32 1.32 2 2 C1.61121812 5.01305957 0.73543126 6.39685311 -1 9 C-1 7.68 -1 6.36 -1 5 C-1.99 5.33 -2.98 5.66 -4 6 C-2.25 1.125 -2.25 1.125 0 0 Z " fill="#4E7BC3" transform="translate(297,245)"/>
<path d="M0 0 C1.9668026 1.9668026 2.9371637 3.5444659 4.1875 6 C4.55230469 6.70125 4.91710937 7.4025 5.29296875 8.125 C5.52628906 8.74375 5.75960937 9.3625 6 10 C5.67 10.66 5.34 11.32 5 12 C4.01 11.67 3.02 11.34 2 11 C0.60955102 7.12137916 0 4.13537997 0 0 Z " fill="#6092DE" transform="translate(207,220)"/>
<path d="M0 0 C1.32 0.33 2.64 0.66 4 1 C3.67 1.66 3.34 2.32 3 3 C2.34 3 1.68 3 1 3 C1.33 3.99 1.66 4.98 2 6 C1.01 6.66 0.02 7.32 -1 8 C-1 7.01 -1 6.02 -1 5 C-1.66 4.67 -2.32 4.34 -3 4 C-2.01 2.68 -1.02 1.36 0 0 Z " fill="#31C4FA" transform="translate(333,195)"/>
<path d="M0 0 C0 0.33 0 0.66 0 1 C-3.96 1.99 -7.92 2.98 -12 4 C-11 1 -11 1 -9.375 -0.25 C-6.04805845 -1.30061312 -3.37991551 -0.64998375 0 0 Z " fill="#5591EA" transform="translate(151,168)"/>
<path d="M0 0 C2.4375 0.375 2.4375 0.375 5 1 C5.33 1.66 5.66 2.32 6 3 C5.34 3 4.68 3 4 3 C4 4.32 4 5.64 4 7 C4.66 7.33 5.32 7.66 6 8 C5.01 8 4.02 8 3 8 C2.01 5.36 1.02 2.72 0 0 Z " fill="#628AD5" transform="translate(209,330)"/>
<path d="M0 0 C0.99 0.33 1.98 0.66 3 1 C1.52307692 5.67692308 1.52307692 5.67692308 -1.125 7.3125 C-2.053125 7.6528125 -2.053125 7.6528125 -3 8 C-1.125 2.25 -1.125 2.25 0 0 Z " fill="#4EC2F0" transform="translate(328,198)"/>
<path d="M0 0 C5 6.59090909 5 6.59090909 5 10 C4.01 10 3.02 10 2 10 C0.39644899 6.49223216 -0.22036864 3.85645121 0 0 Z " fill="#639AEC" transform="translate(191,189)"/>
<path d="M0 0 C1.4370809 -0.05422947 2.87475462 -0.09289723 4.3125 -0.125 C5.11300781 -0.14820313 5.91351563 -0.17140625 6.73828125 -0.1953125 C9 0 9 0 12 2 C11 3 11 3 7.6875 3.25 C3.90232794 2.99337817 2.66974142 2.56295176 0 0 Z " fill="#297DF2" transform="translate(157,167)"/>
<path d="M0 0 C0 0.99 0 1.98 0 3 C1.32 3 2.64 3 4 3 C4.33 3.99 4.66 4.98 5 6 C1.7 5.01 -1.6 4.02 -5 3 C-5 2.34 -5 1.68 -5 1 C-3 0 -3 0 0 0 Z " fill="#50A2E9" transform="translate(295,136)"/>
<path d="M0 0 C3.125 -0.1875 3.125 -0.1875 6 0 C5.67 0.66 5.34 1.32 5 2 C4.34 2 3.68 2 3 2 C3 2.66 3 3.32 3 4 C2.34 4 1.68 4 1 4 C0.67 4.66 0.34 5.32 0 6 C0 5.34 0 4.68 0 4 C-0.66 3.67 -1.32 3.34 -2 3 C-1.34 2.01 -0.68 1.02 0 0 Z " fill="#2FB0F8" transform="translate(347,113)"/>
<path d="M0 0 C2.31 0 4.62 0 7 0 C7 0.66 7 1.32 7 2 C8.65 2.33 10.3 2.66 12 3 C11.67 3.66 11.34 4.32 11 5 C7.37 4.01 3.74 3.02 0 2 C0 1.34 0 0.68 0 0 Z " fill="#1265F1" transform="translate(301,352)"/>
<path d="M0 0 C0.33 0.66 0.66 1.32 1 2 C3.52733235 2.65555119 3.52733235 2.65555119 6 3 C5.67 4.32 5.34 5.64 5 7 C3.35 6.67 1.7 6.34 0 6 C-1.125 2.25 -1.125 2.25 0 0 Z " fill="#1167F7" transform="translate(282,336)"/>
<path d="M0 0 C1.98 0.495 1.98 0.495 4 1 C4 2.65 4 4.3 4 6 C2.35 5.67 0.7 5.34 -1 5 C-0.67 3.35 -0.34 1.7 0 0 Z " fill="#0D3C99" transform="translate(153,233)"/>
<path d="M0 0 C0.66 0.33 1.32 0.66 2 1 C1.34 2.32 0.68 3.64 0 5 C-1.65 5 -3.3 5 -5 5 C-5 5.66 -5 6.32 -5 7 C-5.99 6.67 -6.98 6.34 -8 6 C-7.34 6 -6.68 6 -6 6 C-6 5.34 -6 4.68 -6 4 C-4.03852126 2.61061923 -2.03833424 1.2739589 0 0 Z " fill="#72A3EB" transform="translate(138,170)"/>
<path d="M0 0 C0.66 0 1.32 0 2 0 C2 0.99 2 1.98 2 3 C3.32 3.33 4.64 3.66 6 4 C6 5.65 6 7.3 6 9 C3 8 3 8 2.05078125 6.15234375 C1.80714844 5.42144531 1.56351563 4.69054687 1.3125 3.9375 C1.06113281 3.20402344 0.80976563 2.47054688 0.55078125 1.71484375 C0.36902344 1.14894531 0.18726563 0.58304687 0 0 Z " fill="#6188D4" transform="translate(202,316)"/>
<path d="M0 0 C1.12377697 3.30435084 0.89554742 5.0506862 -0.4375 8.25 C-0.72496094 8.95640625 -1.01242188 9.6628125 -1.30859375 10.390625 C-1.53675781 10.92171875 -1.76492187 11.4528125 -2 12 C-2.33 12 -2.66 12 -3 12 C-3.125 5.25 -3.125 5.25 -2 3 C-1.34 3 -0.68 3 0 3 C0 2.01 0 1.02 0 0 Z " fill="#345EA5" transform="translate(156,245)"/>
<path d="M0 0 C2.99324263 1.0975223 3.84610901 1.67682892 5.25 4.625 C5.4975 5.40875 5.745 6.1925 6 7 C5.01 7.33 4.02 7.66 3 8 C2.01 5.36 1.02 2.72 0 0 Z " fill="#083893" transform="translate(144,208)"/>
<path d="M0 0 C2.97 0.99 5.94 1.98 9 3 C9 3.99 9 4.98 9 6 C4.64464931 4.83857315 2.35380297 3.92300495 0 0 Z " fill="#68C3F0" transform="translate(364,240)"/>
<path d="M0 0 C0.33 0 0.66 0 1 0 C1.0270043 1.45823212 1.04639787 2.91660675 1.0625 4.375 C1.07410156 5.18710938 1.08570313 5.99921875 1.09765625 6.8359375 C1 9 1 9 0 11 C-0.66 11 -1.32 11 -2 11 C-1.85892253 9.54119891 -1.71197585 8.08296449 -1.5625 6.625 C-1.48128906 5.81289062 -1.40007812 5.00078125 -1.31640625 4.1640625 C-1 2 -1 2 0 0 Z " fill="#37569D" transform="translate(158,231)"/>
<path d="M0 0 C4.875 3.625 4.875 3.625 6 7 C5.01 7.66 4.02 8.32 3 9 C3 7.68 3 6.36 3 5 C2.34 5 1.68 5 1 5 C0.67 3.35 0.34 1.7 0 0 Z " fill="#69CAF0" transform="translate(398,220)"/>
<path d="M0 0 C1.98 0.66 3.96 1.32 6 2 C5.34 3.32 4.68 4.64 4 6 C2.68 5.34 1.36 4.68 0 4 C0 2.68 0 1.36 0 0 Z " fill="#36BCF8" transform="translate(392,218)"/>
<path d="M0 0 C2.03833424 1.2739589 4.03852126 2.61061923 6 4 C6 4.66 6 5.32 6 6 C6.66 6 7.32 6 8 6 C8 6.66 8 7.32 8 8 C4.11137013 6.73882275 2.10624401 5.54735833 0 2 C0 1.34 0 0.68 0 0 Z " fill="#6DD1F0" transform="translate(390,212)"/>
<path d="M0 0 C1.32 0 2.64 0 4 0 C4 0.66 4 1.32 4 2 C4.61875 2.12375 5.2375 2.2475 5.875 2.375 C8 3 8 3 10 5 C5.75776898 5.3636198 3.41831915 4.5393228 0 2 C0 1.34 0 0.68 0 0 Z " fill="#77D5F3" transform="translate(375,203)"/>
<path d="M0 0 C4.875 1.75 4.875 1.75 6 4 C3.69 4.33 1.38 4.66 -1 5 C-0.67 3.35 -0.34 1.7 0 0 Z " fill="#458DEE" transform="translate(306,315)"/>
<path d="M0 0 C1.485 0.99 1.485 0.99 3 2 C3 2.66 3 3.32 3 4 C3.66 4 4.32 4 5 4 C5 4.66 5 5.32 5 6 C5.66 6 6.32 6 7 6 C7 6.66 7 7.32 7 8 C5.35 7.67 3.7 7.34 2 7 C1.34 4.69 0.68 2.38 0 0 Z " fill="#67A1E9" transform="translate(299,307)"/>
<path d="M0 0 C1.73745313 2.65728125 2.00831972 3.89600355 1.75 7.125 C1 10 1 10 -1 12 C-1.08159574 7.83861737 -0.98248524 4.0527516 0 0 Z " fill="#4071BF" transform="translate(98,297)"/>
<path d="M0 0 C1.65 0 3.3 0 5 0 C5 1.32 5 2.64 5 4 C3.68 4.33 2.36 4.66 1 5 C0.67 3.35 0.34 1.7 0 0 Z " fill="#1043AF" transform="translate(187,282)"/>
<path d="M0 0 C-0.33 2.64 -0.66 5.28 -1 8 C-1.66 7.67 -2.32 7.34 -3 7 C-3 6.01 -3 5.02 -3 4 C-3.66 4 -4.32 4 -5 4 C-4.67 3.01 -4.34 2.02 -4 1 C-2 0 -2 0 0 0 Z " fill="#426AB8" transform="translate(296,250)"/>
<path d="M0 0 C0.66 0.66 1.32 1.32 2 2 C1.34 3.32 0.68 4.64 0 6 C-0.99 6 -1.98 6 -3 6 C-3 4.35 -3 2.7 -3 1 C-2.01 0.67 -1.02 0.34 0 0 Z " fill="#325EBF" transform="translate(116,229)"/>
<path d="M0 0 C0.99 0 1.98 0 3 0 C3 0.66 3 1.32 3 2 C4.32 2.33 5.64 2.66 7 3 C7 3.66 7 4.32 7 5 C4.69 4.34 2.38 3.68 0 3 C0 2.01 0 1.02 0 0 Z " fill="#33CEF9" transform="translate(372,203)"/>
<path d="M0 0 C0.33 0.99 0.66 1.98 1 3 C-0.9375 6.1875 -0.9375 6.1875 -3 9 C-3.99 8.67 -4.98 8.34 -6 8 C-4.55746343 4.63408134 -2.66735273 2.48952921 0 0 Z " fill="#6EB2E9" transform="translate(290,177)"/>
<path d="M0 0 C1.46726798 3.81489674 0.43336419 6.29011622 -1 10 C-1.33 10 -1.66 10 -2 10 C-2.25 3.375 -2.25 3.375 0 0 Z " fill="#4C70BA" transform="translate(142,304)"/>
<path d="M0 0 C0.97140086 3.02213602 1.19248372 5.0187907 0 8 C-0.99 8.66 -1.98 9.32 -3 10 C-3 8.68 -3 7.36 -3 6 C-2.34 6 -1.68 6 -1 6 C-1.0309375 4.7934375 -1.0309375 4.7934375 -1.0625 3.5625 C-1 1 -1 1 0 0 Z " fill="#2C6BCE" transform="translate(304,236)"/>
<path d="M0 0 C0.66 1.32 1.32 2.64 2 4 C-0.05233685 6.2477975 -1.00667261 7.0022242 -4 8 C-2.87548273 5.0280615 -1.77706209 2.66559313 0 0 Z " fill="#639FEB" transform="translate(253,229)"/>
<path d="M0 0 C3.03869411 1.51934706 3.64410306 3.98004772 5 7 C5 7.66 5 8.32 5 9 C3.68 8.67 2.36 8.34 1 8 C0.67 5.36 0.34 2.72 0 0 Z " fill="#6598E1" transform="translate(202,211)"/>
<path d="M0 0 C0.99 0 1.98 0 3 0 C3 0.66 3 1.32 3 2 C3.66 2.33 4.32 2.66 5 3 C4.401875 3.12375 3.80375 3.2475 3.1875 3.375 C0.73768652 3.95475985 0.73768652 3.95475985 -2 6 C-2.33 5.01 -2.66 4.02 -3 3 C-2.01 3 -1.02 3 0 3 C0 2.01 0 1.02 0 0 Z " fill="#5AB1EF" transform="translate(340,164)"/>
<path d="M0 0 C2.475 0.495 2.475 0.495 5 1 C5 1.99 5 2.98 5 4 C3.35 4 1.7 4 0 4 C0 2.68 0 1.36 0 0 Z " fill="#1A61D7" transform="translate(232,312)"/>
<path d="M0 0 C1.98 0.495 1.98 0.495 4 1 C3.34 2.65 2.68 4.3 2 6 C1.01 5.34 0.02 4.68 -1 4 C-0.67 2.68 -0.34 1.36 0 0 Z " fill="#2CB2FC" transform="translate(325,206)"/>
<path d="M0 0 C0.66 0 1.32 0 2 0 C2 0.66 2 1.32 2 2 C3.32 2.33 4.64 2.66 6 3 C6.33 4.65 6.66 6.3 7 8 C5 6.625 5 6.625 3 5 C3 4.34 3 3.68 3 3 C2.34 3 1.68 3 1 3 C0.67 2.01 0.34 1.02 0 0 Z " fill="#79BFED" transform="translate(344,168)"/>
<path d="M0 0 C2 1.375 2 1.375 4 3 C4 3.66 4 4.32 4 5 C3.01 5 2.02 5 1 5 C1.33 5.99 1.66 6.98 2 8 C1.34 8 0.68 8 0 8 C0 5.36 0 2.72 0 0 Z " fill="#249AFB" transform="translate(336,162)"/>
<path d="M0 0 C1.45945288 0.08708669 2.91765868 0.19526907 4.375 0.3125 C5.59316406 0.39951172 5.59316406 0.39951172 6.8359375 0.48828125 C9 1 9 1 11 4 C7.1936543 3.32829194 3.64793184 2.27253436 0 1 C0 0.67 0 0.34 0 0 Z " fill="#63AEEC" transform="translate(300,142)"/>
<path d="M0 0 C2.97 0.495 2.97 0.495 6 1 C6.33 2.32 6.66 3.64 7 5 C4.11562221 3.70700306 2.12780579 2.34058637 0 0 Z " fill="#669CEA" transform="translate(282,342)"/>
<path d="M0 0 C0.66 0.66 1.32 1.32 2 2 C0.68 3.65 -0.64 5.3 -2 7 C-2 6.01 -2 5.02 -2 4 C-2.66 3.67 -3.32 3.34 -4 3 C-3.34 3 -2.68 3 -2 3 C-2 2.34 -2 1.68 -2 1 C-1.34 0.67 -0.68 0.34 0 0 Z " fill="#5684D3" transform="translate(227,327)"/>
<path d="M0 0 C0 1.98 0 3.96 0 6 C-0.99 6.495 -0.99 6.495 -2 7 C-2.66 5.02 -3.32 3.04 -4 1 C-2 0 -2 0 0 0 Z " fill="#0F6BF7" transform="translate(272,321)"/>
<path d="M0 0 C1.32 0.33 2.64 0.66 4 1 C3.67 2.65 3.34 4.3 3 6 C2.34 6 1.68 6 1 6 C0.67 4.02 0.34 2.04 0 0 Z " fill="#1276F6" transform="translate(302,314)"/>
<path d="M0 0 C0.99 0.99 1.98 1.98 3 3 C1.68 4.32 0.36 5.64 -1 7 C-1.66 6.34 -2.32 5.68 -3 5 C-2.01 3.35 -1.02 1.7 0 0 Z " fill="#0951CB" transform="translate(277,280)"/>
<path d="M0 0 C0.33 0 0.66 0 1 0 C1.36923077 5.53846154 1.36923077 5.53846154 -0.5 7.875 C-1.2425 8.431875 -1.2425 8.431875 -2 9 C-2 7.02 -2 5.04 -2 3 C-1.34 3 -0.68 3 0 3 C0 2.01 0 1.02 0 0 Z " fill="#4C94E5" transform="translate(265,270)"/>
<path d="M0 0 C0.66 0 1.32 0 2 0 C1.75 2.375 1.75 2.375 1 5 C-1.0625 6.3125 -1.0625 6.3125 -3 7 C-2.01 4.69 -1.02 2.38 0 0 Z " fill="#0B3B9E" transform="translate(227,263)"/>
<path d="M0 0 C1.485 0.99 1.485 0.99 3 2 C5.15274948 1.69159401 5.15274948 1.69159401 7 1 C6 4 6 4 3 6 C2.34 5.67 1.68 5.34 1 5 C0.375 2.4375 0.375 2.4375 0 0 Z " fill="#1554C9" transform="translate(177,262)"/>
<path d="M0 0 C2.475 0.99 2.475 0.99 5 2 C1.25 5 1.25 5 -1 5 C-0.67 3.35 -0.34 1.7 0 0 Z " fill="#2981F0" transform="translate(277,248)"/>
<path d="M0 0 C2 1 2 1 3.125 4.0625 C3.41375 5.031875 3.7025 6.00125 4 7 C1.525 6.01 1.525 6.01 -1 5 C-0.67 3.35 -0.34 1.7 0 0 Z " fill="#6295ED" transform="translate(196,199)"/>
<path d="M0 0 C2.31 0 4.62 0 7 0 C6.67 0.99 6.34 1.98 6 3 C3.69 2.67 1.38 2.34 -1 2 C-0.67 1.34 -0.34 0.68 0 0 Z " fill="#5BD5F3" transform="translate(358,197)"/>
<path d="" fill="#FFFFFF" transform="translate(0,0)"/>
<path d="" fill="#FFFFFF" transform="translate(0,0)"/>
<path d="" fill="#FFFFFF" transform="translate(0,0)"/>
<path d="" fill="#FFFFFF" transform="translate(0,0)"/>
<path d="" fill="#FFFFFF" transform="translate(0,0)"/>
<path d="" fill="#FFFFFF" transform="translate(0,0)"/>
<path d="" fill="#FFFFFF" transform="translate(0,0)"/>
<path d="" fill="#FFFFFF" transform="translate(0,0)"/>
<path d="" fill="#FFFFFF" transform="translate(0,0)"/>
<path d="" fill="#FFFFFF" transform="translate(0,0)"/>
<path d="" fill="#FFFFFF" transform="translate(0,0)"/>
<path d="" fill="#FFFFFF" transform="translate(0,0)"/>
<path d="" fill="#FFFFFF" transform="translate(0,0)"/>
<path d="" fill="#FFFFFF" transform="translate(0,0)"/>
<path d="" fill="#FFFFFF" transform="translate(0,0)"/>
<path d="" fill="#FFFFFF" transform="translate(0,0)"/>
<path d="" fill="#FFFFFF" transform="translate(0,0)"/>
<path d="" fill="#FFFFFF" transform="translate(0,0)"/>
<path d="" fill="#FFFFFF" transform="translate(0,0)"/>
<path d="" fill="#FFFFFF" transform="translate(0,0)"/>
<path d="" fill="#FFFFFF" transform="translate(0,0)"/>
<path d="" fill="#FFFFFF" transform="translate(0,0)"/>
<path d="" fill="#FFFFFF" transform="translate(0,0)"/>
<path d="" fill="#FFFFFF" transform="translate(0,0)"/>
<path d="" fill="#FFFFFF" transform="translate(0,0)"/>
<path d="" fill="#FFFFFF" transform="translate(0,0)"/>
<path d="" fill="#FFFFFF" transform="translate(0,0)"/>
<path d="" fill="#FFFFFF" transform="translate(0,0)"/>
<path d="" fill="#FFFFFF" transform="translate(0,0)"/>
<path d="" fill="#FFFFFF" transform="translate(0,0)"/>
<path d="" fill="#FFFFFF" transform="translate(0,0)"/>
<path d="" fill="#FFFFFF" transform="translate(0,0)"/>
<path d="" fill="#FFFFFF" transform="translate(0,0)"/>
<path d="" fill="#FFFFFF" transform="translate(0,0)"/>
<path d="" fill="#FFFFFF" transform="translate(0,0)"/>
<path d="" fill="#FFFFFF" transform="translate(0,0)"/>
<path d="" fill="#FFFFFF" transform="translate(0,0)"/>
<path d="" fill="#FFFFFF" transform="translate(0,0)"/>
<path d="" fill="#FFFFFF" transform="translate(0,0)"/>
<path d="" fill="#FFFFFF" transform="translate(0,0)"/>
<path d="" fill="#FFFFFF" transform="translate(0,0)"/>
<path d="" fill="#FFFFFF" transform="translate(0,0)"/>
<path d="" fill="#FFFFFF" transform="translate(0,0)"/>
<path d="" fill="#FFFFFF" transform="translate(0,0)"/>
<path d="" fill="#FFFFFF" transform="translate(0,0)"/>
<path d="" fill="#FFFFFF" transform="translate(0,0)"/>
<path d="" fill="#FFFFFF" transform="translate(0,0)"/>
<path d="" fill="#FFFFFF" transform="translate(0,0)"/>
<path d="" fill="#FFFFFF" transform="translate(0,0)"/>
<path d="" fill="#FFFFFF" transform="translate(0,0)"/>
<path d="" fill="#FFFFFF" transform="translate(0,0)"/>
<path d="" fill="#FFFFFF" transform="translate(0,0)"/>
<path d="" fill="#FFFFFF" transform="translate(0,0)"/>
<path d="" fill="#FFFFFF" transform="translate(0,0)"/>
<path d="" fill="#FFFFFF" transform="translate(0,0)"/>
<path d="" fill="#FFFFFF" transform="translate(0,0)"/>
<path d="" fill="#FFFFFF" transform="translate(0,0)"/>
<path d="" fill="#FFFFFF" transform="translate(0,0)"/>
<path d="" fill="#FFFFFF" transform="translate(0,0)"/>
<path d="" fill="#FFFFFF" transform="translate(0,0)"/>
<path d="" fill="#FFFEFF" transform="translate(0,0)"/>
<path d="" fill="#FFFFFF" transform="translate(0,0)"/>
<path d="" fill="#FFFFFF" transform="translate(0,0)"/>
<path d="" fill="#FFFFFF" transform="translate(0,0)"/>
<path d="" fill="#FFFFFF" transform="translate(0,0)"/>
<path d="" fill="#FFFFFF" transform="translate(0,0)"/>
<path d="" fill="#FFFFFF" transform="translate(0,0)"/>
<path d="" fill="#FFFFFF" transform="translate(0,0)"/>
<path d="" fill="#FFFFFF" transform="translate(0,0)"/>
</svg>
